<?xml version="1.0" encoding="utf-8"?>
<!-- Generated by IcoMoon.io -->
<svg version="1.1" xmlns="http://www.w3.org/2000/svg" xmlns:xlink="http://www.w3.org/1999/xlink" width="752" height="80" viewBox="0 0 752 80">
<svg id="icon-about-us-ellipse" width="64" height="32" viewBox="0 0 64 32" x="0" y="0">
<path d=""></path>
</svg>
<svg id="icon-about-us-line-horizontal" width="47" height="32" viewBox="0 0 47 32" x="96" y="0">
<path fill="#000" d="M0.27 2.97h15.828v22.423h-15.828v-22.423z"></path>
<path fill="#fffcf6" opacity="0.64" d="M37.61 4.365l-0.078-0.031c-0.036-0.015-0.047-0.042-0.035-0.074s0.041-0.046 0.076-0.031l0.055 0.022 0.029-0.074 0.023 0.010-0.070 0.179zM37.62 4.269l-0.047-0.019c-0.027-0.011-0.043-0.003-0.052 0.017s-0.001 0.037 0.026 0.048l0.047 0.019 0.026-0.066z"></path>
<path fill="#fffcf6" opacity="0.64" d="M37.378 4.261l-0.077-0.048c-0.031-0.019-0.039-0.048-0.023-0.074 0.012-0.019 0.031-0.031 0.054-0.024-0.017-0.016-0.012-0.031-0.003-0.048s0.021-0.035 0.018-0.051l0.024 0.016c0.002 0.010-0.012 0.026-0.019 0.043s-0.012 0.033 0.009 0.047l0.054 0.033 0.043-0.069 0.022 0.013-0.1 0.163zM37.357 4.145c-0.020-0.013-0.041-0.018-0.055 0.005-0.010 0.016-0.009 0.033 0.011 0.046l0.055 0.034 0.035-0.057-0.045-0.028z"></path>
<path fill="#fffcf6" opacity="0.64" d="M37.159 4.113l-0.099-0.088 0.015-0.016 0.080 0.071 0.041-0.046-0.074-0.066 0.015-0.016 0.074 0.068 0.044-0.049-0.081-0.072 0.015-0.016 0.1 0.089-0.129 0.143z"></path>
<path fill="#fffcf6" opacity="0.64" d="M36.98 3.942l-0.021-0.028 0.091-0.146-0.164 0.050-0.021-0.028 0.152-0.118 0.015 0.020-0.127 0.098 0.164-0.049 0.014 0.017-0.091 0.145 0.127-0.098 0.014 0.020-0.153 0.117z"></path>
<path fill="#fffcf6" opacity="0.64" d="M36.803 3.686l-0.012-0.022 0.17-0.092 0.012 0.022-0.17 0.092z"></path>
<path fill="#fffcf6" opacity="0.64" d="M36.8 3.37c0.045-0.017 0.080 0 0.095 0.045 0.017 0.047 0.006 0.082-0.042 0.1l-0.115 0.042-0.009-0.024 0.115-0.042c0.032-0.011 0.043-0.037 0.030-0.068s-0.036-0.041-0.067-0.029l-0.115 0.042-0.009-0.024 0.116-0.042z"></path>
<path fill="#fffcf6" opacity="0.64" d="M36.651 3.292l-0.005-0.035 0.151-0.085-0.169-0.035-0.005-0.035 0.19-0.029 0.003 0.024-0.158 0.024 0.167 0.035 0.002 0.022-0.149 0.083 0.158-0.024 0.003 0.024-0.19 0.030z"></path>
<path fill="#fffcf6" opacity="0.64" d="M36.624 2.833l0.013-0.089c0.005-0.036 0.028-0.055 0.058-0.051 0.023 0.003 0.041 0.016 0.044 0.040 0.008-0.022 0.024-0.024 0.043-0.022s0.040 0.005 0.054-0.003l-0.004 0.029c-0.010 0.006-0.029-0.001-0.049 0s-0.035 0.003-0.039 0.027l-0.009 0.062 0.082 0.012-0.003 0.026-0.189-0.029zM36.722 2.767c0.003-0.024 0-0.045-0.028-0.049-0.018-0.003-0.034 0.006-0.037 0.029l-0.010 0.063 0.067 0.010 0.008-0.053z"></path>
<path fill="#fffcf6" opacity="0.64" d="M36.694 2.492c0.020-0.058 0.075-0.072 0.126-0.055s0.086 0.061 0.066 0.119-0.075 0.072-0.126 0.055c-0.050-0.016-0.086-0.062-0.066-0.119zM36.863 2.551c0.015-0.044-0.017-0.076-0.054-0.088s-0.081-0.007-0.096 0.037c-0.015 0.044 0.017 0.076 0.054 0.088s0.082 0.007 0.096-0.037z"></path>
<path fill="#fffcf6" opacity="0.64" d="M36.813 2.231c0.030-0.053 0.088-0.055 0.133-0.029s0.072 0.077 0.041 0.131-0.088 0.055-0.133 0.029c-0.045-0.028-0.072-0.079-0.041-0.131zM36.969 2.321c0.023-0.041-0.002-0.078-0.035-0.097s-0.078-0.023-0.102 0.017c-0.024 0.041 0.002 0.078 0.035 0.097s0.078 0.023 0.102-0.017z"></path>
<path fill="#fffcf6" opacity="0.64" d="M36.932 2.058l0.023-0.027 0.16 0.063-0.079-0.153 0.023-0.027 0.143 0.129-0.016 0.018-0.119-0.107 0.079 0.152-0.015 0.016-0.159-0.062 0.119 0.107-0.016 0.018-0.143-0.127z"></path>
<path fill="#fffcf6" opacity="0.64" d="M37.277 1.811c-0.019-0.021-0.041-0.018-0.061-0.003-0.016 0.013-0.030 0.032-0.015 0.053 0.014 0.019 0.042 0.003 0.070-0.010s0.060-0.023 0.082 0.008c0.024 0.033 0.002 0.070-0.025 0.091-0.035 0.026-0.076 0.031-0.105-0.006l0.020-0.015c0.019 0.026 0.050 0.021 0.073 0.003 0.019-0.014 0.035-0.035 0.017-0.057-0.015-0.021-0.043-0.007-0.072 0.006s-0.059 0.024-0.080-0.003c-0.024-0.031-0.006-0.067 0.022-0.087 0.031-0.024 0.067-0.027 0.093 0.006l-0.019 0.014z"></path>
<path fill="#fffcf6" opacity="0.64" d="M37.44 1.835l0.026-0.014 0.014 0.026-0.026 0.014-0.014-0.026z"></path>
<path fill="#fffcf6" opacity="0.64" d="M37.626 1.572l0.068-0.019c0.016-0.004 0.038-0.010 0.050-0.007 0.014 0.003 0.028 0.014 0.033 0.033s-0.001 0.037-0.016 0.049c0.024-0.002 0.042 0.012 0.047 0.036 0.008 0.027-0.005 0.059-0.042 0.069l-0.089 0.025-0.051-0.186zM37.696 1.729l0.062-0.017c0.022-0.006 0.031-0.023 0.026-0.043-0.007-0.024-0.029-0.025-0.049-0.020l-0.056 0.016 0.017 0.064zM37.672 1.645l0.049-0.013c0.029-0.008 0.036-0.021 0.031-0.040-0.007-0.026-0.026-0.024-0.047-0.018l-0.049 0.013 0.016 0.058z"></path>
<path fill="#fffcf6" opacity="0.64" d="M37.936 1.507l0.029-0.003 0.093 0.184-0.029 0.003-0.026-0.055-0.080 0.008-0.016 0.060-0.027 0.003 0.057-0.199zM37.927 1.621l0.065-0.006-0.041-0.086-0.024 0.092z"></path>
<path fill="#fffcf6" opacity="0.64" d="M38.138 1.497l0.027 0.003 0.087 0.164 0.013-0.155 0.024 0.002-0.016 0.192-0.028-0.002-0.087-0.162-0.013 0.153-0.024-0.002 0.016-0.193z"></path>
<path fill="#fffcf6" opacity="0.64" d="M38.411 1.532l0.024 0.007-0.025 0.093 0.119-0.068 0.031 0.009-0.099 0.054 0.051 0.133-0.031-0.009-0.042-0.113-0.039 0.020-0.018 0.065-0.024-0.007 0.052-0.184z"></path>
<path fill="#fffcf6" opacity="0.64" d="M38.789 1.672l0.022 0.013-0.043 0.071 0.087 0.052 0.043-0.071 0.022 0.013-0.1 0.165-0.022-0.013 0.046-0.075-0.087-0.052-0.046 0.075-0.022-0.013 0.101-0.165z"></path>
<path fill="#fffcf6" opacity="0.64" d="M39.083 1.876c0.045 0.042 0.035 0.098 0 0.137s-0.090 0.054-0.136 0.013c-0.046-0.041-0.036-0.098 0-0.137s0.090-0.054 0.136-0.013zM38.962 2.010c0.035 0.031 0.077 0.015 0.102-0.014s0.039-0.072 0.004-0.103-0.077-0.015-0.102 0.014c-0.025 0.029-0.039 0.072-0.004 0.103z"></path>
<path fill="#fffcf6" opacity="0.64" d="M39.231 2.073l-0.039-0.051 0.016-0.013 0.094 0.122-0.016 0.013-0.039-0.051-0.135 0.104-0.016-0.021 0.134-0.103z"></path>
<path fill="#fffcf6" opacity="0.64" d="M39.356 2.215l0.063 0.117-0.019 0.010-0.051-0.094-0.054 0.029 0.048 0.087-0.019 0.010-0.048-0.087-0.058 0.032 0.052 0.095-0.019 0.010-0.064-0.118 0.169-0.093z"></path>
<path fill="#fffcf6" opacity="0.64" d="M39.462 2.432l0.009 0.024-0.161 0.057 0.034 0.096-0.021 0.007-0.043-0.12 0.182-0.064z"></path>
<path fill="#fcd043" d="M37.745 2.909c-0.027-0.004-0.045-0.030-0.038-0.057 0.007-0.025 0.033-0.038 0.057-0.028l0.323 0.133-0.342-0.047z"></path>
<path fill="#fcd043" d="M38.132 2.615c0.003-0.028 0.031-0.046 0.058-0.038 0.025 0.007 0.039 0.034 0.029 0.058l-0.132 0.321 0.045-0.34z"></path>
<path fill="#fcd043" d="M37.879 2.681c-0.017-0.022-0.011-0.054 0.013-0.067 0.022-0.013 0.051-0.003 0.061 0.021l0.135 0.321-0.209-0.274z"></path>
<path fill="#fcd043" d="M38.361 2.746c0.022-0.017 0.054-0.010 0.068 0.014 0.013 0.023 0.003 0.051-0.020 0.061l-0.321 0.133 0.273-0.208z"></path>
<path fill="#fcd043" d="M38.428 3.003c0.027 0.004 0.045 0.030 0.038 0.057-0.007 0.025-0.033 0.038-0.057 0.028l-0.323-0.133 0.342 0.047z"></path>
<path fill="#fcd043" d="M38.041 3.297c-0.003 0.028-0.031 0.046-0.058 0.038-0.025-0.007-0.039-0.034-0.029-0.058l0.132-0.321-0.045 0.34z"></path>
<path fill="#fcd043" d="M38.296 3.229c0.017 0.022 0.011 0.054-0.013 0.067-0.022 0.013-0.051 0.003-0.061-0.021l-0.135-0.321 0.209 0.274z"></path>
<path fill="#fcd043" d="M37.814 3.164c-0.022 0.017-0.054 0.010-0.068-0.014-0.013-0.023-0.003-0.051 0.020-0.061l0.321-0.133-0.273 0.208z"></path>
<path fill="#000" d="M46.575 2.654h-7.939v11.945h7.939v-11.945z"></path>
<path fill="#fffcf6" d="M20.678 19.023v0.347h-0.428v-0.347h-0.097v0.86h0.097v-0.505h0.428v0.505h0.097v-0.86h-0.097zM20.95 19.883h0.096v-0.591h-0.096v0.591zM20.994 19.193c0.032 0 0.058-0.026 0.058-0.058s-0.026-0.058-0.058-0.058c-0.032 0-0.058 0.026-0.058 0.058s0.026 0.058 0.058 0.058zM21.854 19.26l-0.218 0.059c-0.042-0.017-0.088-0.027-0.138-0.027-0.165 0-0.333 0.123-0.333 0.326 0 0.128 0.077 0.215 0.186 0.252-0.044 0.005-0.090 0.023-0.123 0.050-0.028 0.025-0.044 0.053-0.045 0.082-0.002 0.028 0.006 0.053 0.023 0.071 0.020 0.022 0.053 0.033 0.093 0.033 0.048 0 0.096-0.023 0.145-0.057 0.039 0.036 0.13 0.086 0.204 0.086 0.065 0 0.12-0.020 0.156-0.055 0.026-0.026 0.039-0.058 0.039-0.092 0-0.064-0.045-0.106-0.113-0.106-0.077 0-0.154 0.057-0.226 0.111-0.071 0.053-0.139 0.103-0.205 0.103-0.037 0-0.068-0.011-0.086-0.031-0.015-0.016-0.022-0.038-0.021-0.064 0.002-0.033 0.025-0.059 0.043-0.074 0.041-0.034 0.102-0.054 0.154-0.048 0.026 0.006 0.054 0.009 0.084 0.009 0.165 0 0.333-0.129 0.333-0.324 0-0.112-0.061-0.194-0.15-0.238l0.198-0.007v-0.059zM21.511 20.002c0.071-0.053 0.146-0.108 0.22-0.108 0.061 0 0.102 0.038 0.102 0.095 0.001 0.032-0.012 0.060-0.036 0.085-0.033 0.033-0.086 0.052-0.149 0.052-0.070 0-0.156-0.047-0.195-0.081 0.020-0.014 0.038-0.027 0.058-0.042zM21.703 19.526c0.043 0.147 0.005 0.302-0.135 0.343s-0.256-0.064-0.299-0.213c-0.043-0.147-0.005-0.301 0.135-0.343 0.14-0.041 0.256 0.065 0.299 0.213zM22.457 19.507c-0.016-0.146-0.101-0.215-0.202-0.215-0.16 0-0.202 0.166-0.218 0.305v-0.574h-0.097v0.86h0.097v-0.183c0-0.103 0.025-0.36 0.162-0.386 0.106-0.021 0.151 0.084 0.161 0.176 0.006 0.063 0.031 0.353 0.036 0.393h0.097c-0.005-0.045-0.025-0.256-0.037-0.376zM23.831 19.451c0-0.243-0.218-0.44-0.46-0.44-0.243 0-0.46 0.197-0.46 0.44 0 0.242 0.216 0.439 0.46 0.439 0.068 0 0.134-0.015 0.193-0.042l0.178 0.102v-0.087l-0.135-0.038c0.131-0.077 0.224-0.216 0.224-0.374zM23.372 19.88c-0.215 0-0.356-0.203-0.356-0.429 0-0.227 0.141-0.429 0.356-0.429 0.214 0 0.356 0.202 0.356 0.429 0 0.147-0.060 0.284-0.161 0.363l-0.097-0.028v0.007l0.069 0.039c-0.049 0.031-0.104 0.048-0.167 0.048zM24.375 19.301v0.179c0 0.104-0.026 0.361-0.163 0.387-0.106 0.021-0.161-0.069-0.161-0.176v-0.391h-0.096v0.374c0 0.144 0.088 0.215 0.203 0.215 0.159 0 0.202-0.166 0.218-0.305v0.299h0.097v-0.582h-0.097zM24.901 19.292c-0.098 0-0.157 0.052-0.177 0.118l0.009 0.004c0.020-0.065 0.077-0.109 0.157-0.109 0.087 0 0.138 0.082 0.138 0.176v0.114c-0.076-0.157-0.433-0.145-0.433 0.106 0 0.108 0.103 0.189 0.22 0.189 0.124 0 0.19-0.088 0.213-0.178l0.084 0.172h0.014v-0.387c0-0.151-0.122-0.204-0.224-0.204zM24.842 19.866c-0.085 0-0.159-0.075-0.159-0.177 0-0.241 0.296-0.213 0.344-0.071v0.029c-0.005 0.106-0.071 0.219-0.186 0.219zM25.285 19.023v0.86h0.097v-0.86h-0.097zM25.543 19.883h0.096v-0.591h-0.096v0.591zM25.588 19.193c0.032 0 0.058-0.026 0.058-0.058s-0.026-0.058-0.058-0.058c-0.032 0-0.058 0.026-0.058 0.058s0.026 0.058 0.058 0.058zM26.164 19.666c0 0.102-0.036 0.198-0.118 0.202-0.097 0.005-0.117-0.069-0.117-0.176v-0.391h0.144v-0.009h-0.144v-0.168h-0.014l-0.084 0.168h-0.073v0.009h0.073v0.374c0 0.144 0.068 0.215 0.176 0.215 0.13 0 0.165-0.107 0.165-0.224h-0.009zM26.746 19.292l-0.198 0.49-0.205-0.49h-0.097l0.258 0.605c-0.077 0.136-0.227 0.076-0.249 0.057 0 0.031 0 0.087 0 0.087 0.103 0.034 0.204 0.033 0.288-0.22l0.213-0.528h-0.009z"></path>
<path fill="#fffcf6" opacity="0.64" d="M20.186 21.628h0.042v-0.28h0.105v-0.035h-0.253v0.035h0.105v0.28zM20.362 21.628h0.038v-0.129c0-0.041 0.022-0.072 0.068-0.072 0.029 0 0.046 0.018 0.046 0.046v0.155h0.038v-0.15c0-0.049-0.019-0.084-0.079-0.084-0.027 0-0.060 0.012-0.072 0.039h-0.001v-0.121h-0.038v0.316zM20.766 21.556c-0.007 0.030-0.028 0.045-0.059 0.045-0.050 0-0.073-0.035-0.071-0.075h0.171c0.002-0.055-0.023-0.131-0.104-0.131-0.062 0-0.108 0.050-0.108 0.119 0.002 0.070 0.037 0.12 0.11 0.12 0.051 0 0.088-0.027 0.098-0.078h-0.037zM20.635 21.492c0.003-0.035 0.026-0.065 0.065-0.065 0.037 0 0.064 0.029 0.066 0.065h-0.131zM20.984 21.628h0.038v-0.196h0.044v-0.033h-0.044v-0.032c0-0.020 0.011-0.026 0.029-0.026 0.007 0 0.015 0.001 0.021 0.003v-0.033c-0.007-0.002-0.017-0.004-0.024-0.004-0.041 0-0.063 0.019-0.063 0.057v0.034h-0.038v0.033h0.038v0.196zM21.14 21.358v-0.046h-0.038v0.046h0.038zM21.14 21.628v-0.229h-0.038v0.229h0.038zM21.384 21.4h-0.039l-0.062 0.191h-0.001l-0.064-0.191h-0.042l0.085 0.229h0.040l0.084-0.229zM21.577 21.556c-0.007 0.030-0.028 0.045-0.059 0.045-0.050 0-0.073-0.035-0.071-0.075h0.171c0.002-0.055-0.023-0.131-0.104-0.131-0.062 0-0.108 0.050-0.108 0.119 0.002 0.070 0.037 0.12 0.11 0.12 0.051 0 0.088-0.027 0.098-0.078h-0.037zM21.446 21.492c0.003-0.035 0.026-0.065 0.065-0.065 0.037 0 0.064 0.029 0.066 0.065h-0.131zM21.65 21.523h0.128v-0.035h-0.128v0.035zM21.814 21.556c0.002 0.057 0.046 0.077 0.097 0.077 0.046 0 0.097-0.018 0.097-0.072 0-0.044-0.037-0.057-0.075-0.065-0.035-0.008-0.075-0.013-0.075-0.040 0-0.023 0.026-0.029 0.049-0.029 0.025 0 0.050 0.009 0.053 0.038h0.038c-0.003-0.056-0.043-0.072-0.094-0.072-0.040 0-0.085 0.019-0.085 0.065 0 0.044 0.038 0.056 0.075 0.065s0.075 0.013 0.075 0.042c0 0.029-0.032 0.034-0.055 0.034-0.031 0-0.060-0.011-0.061-0.044h-0.038zM22.102 21.331h-0.038v0.069h-0.039v0.033h0.039v0.146c0 0.042 0.015 0.050 0.054 0.050h0.029v-0.033h-0.017c-0.023 0-0.028-0.003-0.028-0.020v-0.142h0.046v-0.033h-0.046v-0.069zM22.331 21.549c0 0.021-0.020 0.052-0.070 0.052-0.023 0-0.044-0.009-0.044-0.034 0-0.028 0.021-0.037 0.046-0.041s0.054-0.005 0.068-0.015v0.038zM22.392 21.598c-0.005 0.002-0.008 0.002-0.012 0.002-0.012 0-0.012-0.008-0.012-0.026v-0.118c0-0.054-0.045-0.063-0.086-0.063-0.051 0-0.095 0.020-0.097 0.077h0.038c0.002-0.034 0.025-0.043 0.057-0.043 0.024 0 0.051 0.005 0.051 0.038 0 0.028-0.035 0.026-0.077 0.034-0.039 0.008-0.077 0.019-0.077 0.070 0 0.046 0.034 0.064 0.076 0.064 0.032 0 0.060-0.011 0.081-0.035 0 0.025 0.012 0.035 0.032 0.035 0.012 0 0.020-0.002 0.027-0.006v-0.029zM22.426 21.628h0.038v-0.102c0-0.058 0.022-0.092 0.083-0.092v-0.040c-0.041-0.001-0.066 0.017-0.084 0.054h-0.001v-0.048h-0.035v0.229zM22.746 21.484h0.096c0.035 0 0.069 0.012 0.069 0.053 0 0.035-0.023 0.057-0.059 0.057h-0.105v-0.109zM22.704 21.628h0.153c0.063 0 0.096-0.044 0.096-0.091 0-0.039-0.021-0.068-0.060-0.076v-0.001c0.029-0.012 0.047-0.037 0.047-0.071 0-0.031-0.016-0.054-0.037-0.066-0.019-0.012-0.056-0.012-0.084-0.012h-0.115v0.316zM22.746 21.348h0.084c0.036 0 0.067 0.006 0.067 0.050 0 0.033-0.019 0.050-0.067 0.050h-0.084v-0.1zM23.142 21.549c0 0.021-0.020 0.052-0.070 0.052-0.023 0-0.044-0.009-0.044-0.034 0-0.028 0.021-0.037 0.046-0.041s0.054-0.005 0.068-0.015v0.038zM23.203 21.598c-0.005 0.002-0.008 0.002-0.012 0.002-0.012 0-0.012-0.008-0.012-0.026v-0.118c0-0.054-0.045-0.063-0.086-0.063-0.051 0-0.095 0.020-0.097 0.077h0.038c0.002-0.034 0.025-0.043 0.057-0.043 0.024 0 0.051 0.005 0.051 0.038 0 0.028-0.035 0.026-0.077 0.034-0.039 0.008-0.077 0.019-0.077 0.070 0 0.046 0.034 0.064 0.076 0.064 0.032 0 0.060-0.011 0.081-0.035 0 0.025 0.012 0.035 0.032 0.035 0.012 0 0.020-0.002 0.027-0.006v-0.029zM23.238 21.628h0.038v-0.129c0-0.041 0.022-0.072 0.068-0.072 0.029 0 0.046 0.018 0.046 0.046v0.155h0.038v-0.15c0-0.049-0.019-0.084-0.079-0.084-0.033 0-0.058 0.013-0.074 0.042h-0.001v-0.036h-0.035v0.229zM23.486 21.628h0.038v-0.087l0.035-0.033 0.078 0.119h0.048l-0.097-0.146 0.091-0.083h-0.050l-0.104 0.1v-0.187h-0.038v0.316zM23.842 21.628h0.042v-0.145h0.166v0.145h0.042v-0.316h-0.042v0.136h-0.166v-0.136h-0.042v0.316zM24.143 21.514c0 0.067 0.038 0.119 0.111 0.119s0.111-0.053 0.111-0.119c0-0.067-0.038-0.12-0.111-0.12s-0.111 0.053-0.111 0.12zM24.183 21.514c0-0.056 0.032-0.087 0.071-0.087s0.071 0.031 0.071 0.087c0 0.055-0.032 0.086-0.071 0.086s-0.071-0.031-0.071-0.086zM24.462 21.331h-0.038v0.069h-0.039v0.033h0.039v0.146c0 0.042 0.015 0.050 0.054 0.050h0.029v-0.033h-0.017c-0.023 0-0.028-0.003-0.028-0.020v-0.142h0.046v-0.033h-0.046v-0.069zM24.707 21.556c-0.007 0.030-0.028 0.045-0.059 0.045-0.050 0-0.073-0.035-0.071-0.075h0.171c0.002-0.055-0.023-0.131-0.103-0.131-0.062 0-0.108 0.050-0.108 0.119 0.002 0.070 0.037 0.12 0.11 0.12 0.051 0 0.087-0.027 0.098-0.078h-0.037zM24.576 21.492c0.003-0.035 0.026-0.065 0.066-0.065 0.037 0 0.064 0.029 0.066 0.065h-0.131zM24.789 21.628h0.038v-0.316h-0.038v0.316zM25.307 21.4h-0.039l-0.051 0.187h-0.001l-0.048-0.187h-0.041l-0.046 0.187h-0.001l-0.052-0.187h-0.042l0.073 0.229h0.041l0.046-0.182h0.001l0.046 0.182h0.040l0.073-0.229zM25.485 21.549c0 0.021-0.020 0.052-0.070 0.052-0.023 0-0.044-0.009-0.044-0.034 0-0.028 0.021-0.037 0.046-0.041s0.054-0.005 0.068-0.015v0.038zM25.546 21.598c-0.005 0.002-0.008 0.002-0.012 0.002-0.012 0-0.012-0.008-0.012-0.026v-0.118c0-0.054-0.045-0.063-0.086-0.063-0.051 0-0.095 0.020-0.097 0.077h0.038c0.002-0.034 0.025-0.043 0.057-0.043 0.024 0 0.051 0.005 0.051 0.038 0 0.028-0.035 0.026-0.077 0.034-0.039 0.008-0.077 0.019-0.077 0.070 0 0.046 0.034 0.064 0.076 0.064 0.032 0 0.060-0.011 0.081-0.035 0 0.025 0.012 0.035 0.032 0.035 0.012 0 0.020-0.002 0.027-0.006v-0.029zM25.566 21.556c0.002 0.057 0.045 0.077 0.097 0.077 0.046 0 0.097-0.018 0.097-0.072 0-0.044-0.037-0.057-0.075-0.065-0.035-0.008-0.075-0.013-0.075-0.040 0-0.023 0.026-0.029 0.049-0.029 0.025 0 0.050 0.009 0.053 0.038h0.038c-0.003-0.056-0.044-0.072-0.094-0.072-0.040 0-0.085 0.019-0.085 0.065 0 0.044 0.038 0.056 0.075 0.065s0.075 0.013 0.075 0.042c0 0.029-0.032 0.034-0.055 0.034-0.031 0-0.060-0.011-0.061-0.044h-0.038zM25.924 21.628h0.038v-0.102c0-0.058 0.022-0.092 0.083-0.092v-0.040c-0.041-0.001-0.066 0.017-0.084 0.054h-0.001v-0.048h-0.035v0.229zM26.223 21.556c-0.007 0.030-0.028 0.045-0.059 0.045-0.050 0-0.073-0.035-0.071-0.075h0.171c0.002-0.055-0.022-0.131-0.103-0.131-0.062 0-0.107 0.050-0.107 0.119 0.002 0.070 0.037 0.12 0.11 0.12 0.051 0 0.088-0.027 0.098-0.078h-0.037zM26.092 21.492c0.003-0.035 0.026-0.065 0.065-0.065 0.037 0 0.064 0.029 0.066 0.065h-0.131zM26.29 21.514c0 0.067 0.038 0.119 0.111 0.119s0.111-0.053 0.111-0.119c0-0.067-0.038-0.12-0.111-0.12s-0.111 0.053-0.111 0.12zM26.33 21.514c0-0.056 0.032-0.087 0.071-0.087s0.071 0.031 0.071 0.087c0 0.055-0.032 0.086-0.071 0.086s-0.071-0.031-0.071-0.086zM26.735 21.512c0 0.045-0.017 0.088-0.069 0.088s-0.072-0.042-0.072-0.087c0-0.043 0.019-0.086 0.070-0.086 0.049 0 0.071 0.042 0.071 0.084zM26.558 21.716h0.038v-0.118h0.001c0.017 0.027 0.050 0.036 0.074 0.036 0.070 0 0.104-0.054 0.104-0.119s-0.035-0.12-0.105-0.12c-0.031 0-0.061 0.011-0.073 0.036h-0.001v-0.031h-0.038v0.316zM26.976 21.556c-0.007 0.030-0.028 0.045-0.059 0.045-0.050 0-0.073-0.035-0.071-0.075h0.171c0.002-0.055-0.023-0.131-0.103-0.131-0.062 0-0.108 0.050-0.108 0.119 0.002 0.070 0.037 0.12 0.11 0.12 0.051 0 0.087-0.027 0.098-0.078h-0.037zM26.846 21.492c0.003-0.035 0.026-0.065 0.066-0.065 0.037 0 0.064 0.029 0.066 0.065h-0.131zM27.056 21.628h0.038v-0.129c0-0.041 0.022-0.072 0.068-0.072 0.029 0 0.046 0.018 0.046 0.046v0.155h0.038v-0.15c0-0.049-0.019-0.084-0.079-0.084-0.033 0-0.058 0.013-0.074 0.042h-0.001v-0.036h-0.035v0.229zM27.46 21.556c-0.007 0.030-0.028 0.045-0.059 0.045-0.050 0-0.073-0.035-0.071-0.075h0.171c0.002-0.055-0.023-0.131-0.103-0.131-0.062 0-0.108 0.050-0.108 0.119 0.002 0.070 0.037 0.12 0.11 0.12 0.051 0 0.087-0.027 0.098-0.078h-0.037zM27.329 21.492c0.003-0.035 0.026-0.065 0.066-0.065 0.037 0 0.064 0.029 0.066 0.065h-0.131zM27.744 21.312h-0.038v0.118h-0.001c-0.017-0.027-0.050-0.036-0.074-0.036-0.070 0-0.104 0.054-0.104 0.119s0.035 0.12 0.105 0.12c0.031 0 0.061-0.011 0.073-0.036h0.001v0.031h0.038v-0.316zM27.567 21.516c0-0.045 0.017-0.088 0.069-0.088s0.072 0.042 0.072 0.087c0 0.043-0.019 0.086-0.070 0.086-0.049 0-0.071-0.042-0.071-0.084zM27.977 21.331h-0.038v0.069h-0.039v0.033h0.039v0.146c0 0.042 0.015 0.050 0.054 0.050h0.029v-0.033h-0.017c-0.023 0-0.028-0.003-0.028-0.020v-0.142h0.045v-0.033h-0.045v-0.069zM28.052 21.514c0 0.067 0.038 0.119 0.111 0.119s0.111-0.053 0.111-0.119c0-0.067-0.038-0.12-0.111-0.12s-0.111 0.053-0.111 0.12zM28.092 21.514c0-0.056 0.032-0.087 0.071-0.087s0.071 0.031 0.071 0.087c0 0.055-0.032 0.086-0.071 0.086s-0.071-0.031-0.071-0.086zM28.628 21.4h-0.039l-0.062 0.191h-0.001l-0.064-0.191h-0.042l0.085 0.229h0.040l0.084-0.229zM28.665 21.628h0.038v-0.229h-0.038v0.229zM28.703 21.312h-0.038v0.046h0.038v-0.046zM28.746 21.556c0.002 0.057 0.046 0.077 0.097 0.077 0.046 0 0.097-0.018 0.097-0.072 0-0.044-0.037-0.057-0.075-0.065-0.035-0.008-0.075-0.013-0.075-0.040 0-0.023 0.026-0.029 0.049-0.029 0.025 0 0.050 0.009 0.053 0.038h0.038c-0.003-0.056-0.043-0.072-0.094-0.072-0.040 0-0.085 0.019-0.085 0.065 0 0.044 0.038 0.056 0.075 0.065s0.075 0.013 0.075 0.042c0 0.029-0.032 0.034-0.055 0.034-0.031 0-0.060-0.011-0.061-0.044h-0.038zM28.984 21.628h0.038v-0.229h-0.038v0.229zM29.022 21.312h-0.038v0.046h0.038v-0.046zM29.132 21.331h-0.038v0.069h-0.039v0.033h0.039v0.146c0 0.042 0.015 0.050 0.054 0.050h0.029v-0.033h-0.017c-0.023 0-0.028-0.003-0.028-0.020v-0.142h0.045v-0.033h-0.045v-0.069zM29.207 21.514c0 0.067 0.039 0.119 0.111 0.119s0.111-0.053 0.111-0.119c0-0.067-0.039-0.12-0.111-0.12s-0.111 0.053-0.111 0.12zM29.247 21.514c0-0.056 0.032-0.087 0.071-0.087s0.071 0.031 0.071 0.087c0 0.055-0.032 0.086-0.071 0.086s-0.071-0.031-0.071-0.086zM29.472 21.628h0.038v-0.102c0-0.058 0.022-0.092 0.083-0.092v-0.040c-0.041-0.001-0.066 0.017-0.084 0.054h-0.001v-0.048h-0.035v0.229zM29.606 21.556c0.002 0.057 0.045 0.077 0.097 0.077 0.046 0 0.097-0.018 0.097-0.072 0-0.044-0.037-0.057-0.075-0.065-0.035-0.008-0.075-0.013-0.075-0.040 0-0.023 0.026-0.029 0.049-0.029 0.025 0 0.050 0.009 0.053 0.038h0.038c-0.003-0.056-0.044-0.072-0.094-0.072-0.040 0-0.085 0.019-0.085 0.065 0 0.044 0.038 0.056 0.075 0.065s0.075 0.013 0.075 0.042c0 0.029-0.032 0.034-0.055 0.034-0.031 0-0.060-0.011-0.061-0.044h-0.038zM29.967 21.628h0.038v-0.229h-0.038v0.229zM30.005 21.312h-0.038v0.046h0.038v-0.046zM30.063 21.628h0.038v-0.129c0-0.041 0.022-0.072 0.068-0.072 0.029 0 0.046 0.018 0.046 0.046v0.155h0.038v-0.15c0-0.049-0.019-0.084-0.079-0.084-0.033 0-0.058 0.013-0.074 0.042h-0.001v-0.036h-0.035v0.229zM20.137 22.114c-0.001-0.038 0.017-0.078 0.061-0.078 0.033 0 0.061 0.023 0.061 0.057 0 0.043-0.027 0.063-0.080 0.096-0.044 0.027-0.082 0.054-0.088 0.128h0.205v-0.033h-0.161c0.008-0.039 0.049-0.059 0.088-0.083s0.076-0.052 0.076-0.108c0-0.058-0.043-0.090-0.098-0.090-0.066 0-0.104 0.047-0.101 0.111h0.038zM20.344 22.162c0 0.069 0.006 0.159 0.104 0.159s0.104-0.090 0.104-0.159c0-0.069-0.006-0.16-0.104-0.16s-0.104 0.090-0.104 0.16zM20.384 22.162c0-0.046 0-0.126 0.065-0.126s0.065 0.080 0.065 0.126c0 0.047-0 0.127-0.065 0.127s-0.065-0.080-0.065-0.127zM20.729 22.003h-0.029c-0.008 0.047-0.047 0.059-0.090 0.059v0.030h0.081v0.225h0.038v-0.314zM20.944 22.148c0.043 0 0.063 0.032 0.063 0.071 0 0.037-0.023 0.069-0.063 0.069s-0.065-0.031-0.065-0.070c0-0.039 0.023-0.071 0.065-0.071zM21.038 22.083c-0.004-0.051-0.037-0.080-0.088-0.080-0.089 0-0.115 0.082-0.115 0.168 0 0.066 0.015 0.151 0.108 0.151 0.079 0 0.105-0.060 0.105-0.105 0-0.058-0.036-0.102-0.096-0.102-0.034 0-0.061 0.012-0.078 0.041l-0.001-0.001c0.002-0.048 0.012-0.119 0.076-0.119 0.030 0 0.049 0.019 0.053 0.047h0.038zM21.1 22.316h0.049v-0.049h-0.049v0.049zM21.416 22.316h0.042v-0.28h0.105v-0.035h-0.253v0.035h0.105v0.28zM21.592 22.316h0.038v-0.129c0-0.041 0.022-0.072 0.068-0.072 0.029 0 0.046 0.018 0.046 0.046v0.155h0.038v-0.15c0-0.049-0.019-0.084-0.079-0.084-0.027 0-0.060 0.012-0.072 0.039h-0.001v-0.121h-0.038v0.316zM21.996 22.244c-0.007 0.030-0.028 0.045-0.059 0.045-0.050 0-0.073-0.035-0.071-0.075h0.171c0.002-0.055-0.023-0.131-0.104-0.131-0.062 0-0.108 0.050-0.108 0.119 0.002 0.070 0.037 0.12 0.11 0.12 0.051 0 0.088-0.027 0.098-0.078h-0.037zM21.865 22.18c0.003-0.035 0.026-0.065 0.065-0.065 0.037 0 0.064 0.029 0.066 0.065h-0.131zM22.377 22.2c0 0.045-0.017 0.088-0.069 0.088s-0.072-0.042-0.072-0.087c0-0.043 0.019-0.086 0.070-0.086 0.049 0 0.071 0.042 0.071 0.084zM22.2 22.316h0.038v-0.031h0.001c0.017 0.027 0.050 0.036 0.074 0.036 0.070 0 0.104-0.054 0.104-0.119s-0.035-0.12-0.105-0.12c-0.031 0-0.061 0.011-0.073 0.036h-0.001v-0.118h-0.038v0.316zM22.65 22.088h-0.038v0.129c0 0.041-0.022 0.072-0.068 0.072-0.029 0-0.046-0.018-0.046-0.046v-0.155h-0.038v0.15c0 0.049 0.019 0.084 0.079 0.084 0.033 0 0.058-0.013 0.074-0.042h0.001v0.036h0.035v-0.229zM22.709 22.316h0.038v-0.229h-0.038v0.229zM22.746 22.001h-0.038v0.046h0.038v-0.046zM22.807 22.316h0.038v-0.316h-0.038v0.316zM23.107 22.001h-0.038v0.118h-0.001c-0.017-0.027-0.050-0.036-0.074-0.036-0.070 0-0.104 0.054-0.104 0.119s0.035 0.12 0.105 0.12c0.031 0 0.061-0.011 0.073-0.036h0.001v0.031h0.038v-0.316zM22.93 22.204c0-0.045 0.017-0.088 0.069-0.088s0.072 0.042 0.072 0.087c0 0.043-0.019 0.086-0.070 0.086-0.049 0-0.071-0.042-0.071-0.084zM23.167 22.316h0.038v-0.229h-0.038v0.229zM23.205 22.001h-0.038v0.046h0.038v-0.046zM23.263 22.316h0.038v-0.129c0-0.041 0.022-0.072 0.068-0.072 0.029 0 0.046 0.018 0.046 0.046v0.155h0.038v-0.15c0-0.049-0.019-0.084-0.079-0.084-0.033 0-0.058 0.013-0.074 0.042h-0.001v-0.036h-0.035v0.229zM23.601 22.286c-0.050 0-0.065-0.046-0.065-0.087 0-0.044 0.019-0.083 0.068-0.083s0.065 0.042 0.065 0.082c0 0.043-0.019 0.088-0.068 0.088zM23.706 22.088h-0.035v0.033h-0c-0.014-0.025-0.039-0.038-0.068-0.038-0.079 0-0.106 0.067-0.106 0.121 0 0.062 0.034 0.116 0.102 0.116 0.029 0 0.059-0.014 0.071-0.042h0.001v0.015c0 0.051-0.019 0.087-0.069 0.087-0.025 0-0.058-0.010-0.059-0.037h-0.038c0.002 0.050 0.052 0.067 0.095 0.067 0.072 0 0.106-0.038 0.106-0.112v-0.209zM24.185 22.088h-0.039l-0.051 0.187h-0.001l-0.048-0.187h-0.041l-0.046 0.187h-0.001l-0.052-0.187h-0.042l0.073 0.229h0.041l0.046-0.182h0.001l0.046 0.182h0.040l0.073-0.229zM24.363 22.237c0 0.021-0.020 0.052-0.070 0.052-0.023 0-0.044-0.009-0.044-0.034 0-0.028 0.021-0.037 0.046-0.041s0.054-0.005 0.068-0.015v0.038zM24.424 22.286c-0.005 0.002-0.008 0.002-0.012 0.002-0.012 0-0.012-0.008-0.012-0.026v-0.118c0-0.054-0.045-0.063-0.086-0.063-0.051 0-0.095 0.020-0.097 0.077h0.038c0.002-0.034 0.025-0.043 0.057-0.043 0.024 0 0.051 0.005 0.051 0.038 0 0.028-0.035 0.026-0.077 0.034-0.039 0.008-0.077 0.019-0.077 0.070 0 0.046 0.034 0.064 0.076 0.064 0.032 0 0.060-0.011 0.081-0.035 0 0.025 0.012 0.035 0.032 0.035 0.012 0 0.020-0.002 0.027-0.006v-0.029zM24.444 22.244c0.002 0.057 0.046 0.077 0.097 0.077 0.046 0 0.097-0.018 0.097-0.072 0-0.044-0.037-0.057-0.075-0.065-0.035-0.008-0.075-0.013-0.075-0.040 0-0.023 0.026-0.029 0.049-0.029 0.025 0 0.050 0.009 0.053 0.038h0.038c-0.003-0.056-0.044-0.072-0.094-0.072-0.040 0-0.085 0.019-0.085 0.065 0 0.044 0.038 0.056 0.075 0.065s0.075 0.013 0.075 0.042c0 0.029-0.032 0.034-0.055 0.034-0.031 0-0.060-0.011-0.061-0.044h-0.038zM24.802 22.316h0.038v-0.102c0-0.058 0.022-0.092 0.083-0.092v-0.040c-0.041-0.001-0.066 0.017-0.084 0.054h-0.001v-0.048h-0.035v0.229zM25.101 22.244c-0.007 0.030-0.028 0.045-0.059 0.045-0.050 0-0.073-0.035-0.071-0.075h0.171c0.002-0.055-0.022-0.131-0.103-0.131-0.062 0-0.107 0.050-0.107 0.119 0.002 0.070 0.037 0.12 0.11 0.12 0.051 0 0.088-0.027 0.098-0.078h-0.037zM24.97 22.18c0.003-0.035 0.026-0.065 0.065-0.065 0.037 0 0.064 0.029 0.066 0.065h-0.131zM25.18 22.316h0.038v-0.129c0-0.041 0.022-0.072 0.068-0.072 0.029 0 0.046 0.018 0.046 0.046v0.155h0.038v-0.15c0-0.049-0.018-0.084-0.079-0.084-0.033 0-0.058 0.013-0.074 0.042h-0.001v-0.036h-0.035v0.229zM25.414 22.202c0 0.067 0.038 0.119 0.111 0.119s0.111-0.053 0.111-0.119c0-0.067-0.038-0.12-0.111-0.12s-0.111 0.053-0.111 0.12zM25.454 22.202c0-0.056 0.032-0.087 0.071-0.087s0.071 0.031 0.071 0.087c0 0.055-0.032 0.086-0.071 0.086s-0.071-0.031-0.071-0.086zM25.867 22.088h-0.039l-0.062 0.191h-0.001l-0.064-0.191h-0.042l0.085 0.229h0.040l0.084-0.229zM26.043 22.237c0 0.021-0.020 0.052-0.070 0.052-0.023 0-0.044-0.009-0.044-0.034 0-0.028 0.021-0.037 0.046-0.041s0.053-0.005 0.068-0.015v0.038zM26.104 22.286c-0.005 0.002-0.008 0.002-0.012 0.002-0.012 0-0.012-0.008-0.012-0.026v-0.118c0-0.054-0.045-0.063-0.086-0.063-0.051 0-0.095 0.020-0.097 0.077h0.038c0.002-0.034 0.025-0.043 0.057-0.043 0.024 0 0.051 0.005 0.051 0.038 0 0.028-0.035 0.026-0.077 0.034-0.039 0.008-0.077 0.019-0.077 0.070 0 0.046 0.034 0.064 0.076 0.064 0.032 0 0.060-0.011 0.081-0.035 0 0.025 0.012 0.035 0.032 0.035 0.012 0 0.020-0.002 0.027-0.006v-0.029zM26.191 22.019h-0.038v0.069h-0.039v0.033h0.039v0.146c0 0.042 0.015 0.050 0.054 0.050h0.029v-0.033h-0.017c-0.023 0-0.028-0.003-0.028-0.020v-0.142h0.045v-0.033h-0.045v-0.069zM26.436 22.244c-0.007 0.030-0.028 0.045-0.059 0.045-0.050 0-0.073-0.035-0.071-0.075h0.171c0.002-0.055-0.022-0.131-0.103-0.131-0.062 0-0.107 0.050-0.107 0.119 0.002 0.070 0.037 0.12 0.11 0.12 0.051 0 0.088-0.027 0.098-0.078h-0.037zM26.306 22.18c0.003-0.035 0.026-0.065 0.065-0.065 0.037 0 0.064 0.029 0.066 0.065h-0.131zM26.721 22.001h-0.038v0.118h-0.001c-0.017-0.027-0.050-0.036-0.074-0.036-0.070 0-0.104 0.054-0.104 0.119s0.035 0.12 0.105 0.12c0.031 0 0.061-0.011 0.073-0.036h0.001v0.031h0.038v-0.316zM26.544 22.204c0-0.045 0.017-0.088 0.069-0.088s0.072 0.042 0.072 0.087c0 0.043-0.019 0.086-0.070 0.086-0.049 0-0.071-0.042-0.071-0.084zM27.043 22.237c0 0.021-0.020 0.052-0.070 0.052-0.023 0-0.044-0.009-0.044-0.034 0-0.028 0.021-0.037 0.046-0.041s0.054-0.005 0.068-0.015v0.038zM27.104 22.286c-0.005 0.002-0.008 0.002-0.011 0.002-0.012 0-0.012-0.008-0.012-0.026v-0.118c0-0.054-0.045-0.063-0.086-0.063-0.051 0-0.095 0.020-0.097 0.077h0.038c0.002-0.034 0.025-0.043 0.057-0.043 0.024 0 0.051 0.005 0.051 0.038 0 0.028-0.035 0.026-0.077 0.034-0.039 0.008-0.077 0.019-0.077 0.070 0 0.046 0.034 0.064 0.075 0.064 0.032 0 0.060-0.011 0.081-0.035 0 0.025 0.012 0.035 0.032 0.035 0.012 0 0.020-0.002 0.027-0.006v-0.029zM27.139 22.316h0.038v-0.129c0-0.041 0.022-0.072 0.068-0.072 0.029 0 0.046 0.018 0.046 0.046v0.155h0.038v-0.15c0-0.049-0.018-0.084-0.079-0.084-0.033 0-0.058 0.013-0.074 0.042h-0.001v-0.036h-0.035v0.229zM27.589 22.001h-0.038v0.118h-0.001c-0.017-0.027-0.050-0.036-0.074-0.036-0.070 0-0.104 0.054-0.104 0.119s0.035 0.12 0.105 0.12c0.031 0 0.061-0.011 0.073-0.036h0.001v0.031h0.038v-0.316zM27.412 22.204c0-0.045 0.017-0.088 0.069-0.088s0.072 0.042 0.072 0.087c0 0.043-0.019 0.086-0.070 0.086-0.049 0-0.071-0.042-0.071-0.084zM27.77 22.316h0.038v-0.142c0-0.017 0.016-0.058 0.061-0.058 0.034 0 0.043 0.021 0.043 0.051v0.15h0.038v-0.142c0-0.035 0.023-0.058 0.060-0.058s0.044 0.023 0.044 0.051v0.15h0.038v-0.168c0-0.047-0.030-0.066-0.076-0.066-0.029 0-0.056 0.015-0.072 0.039-0.009-0.028-0.035-0.039-0.063-0.039-0.031 0-0.057 0.013-0.074 0.039h-0.001v-0.034h-0.035v0.229zM28.135 22.202c0 0.067 0.039 0.119 0.111 0.119s0.111-0.053 0.111-0.119c0-0.067-0.039-0.12-0.111-0.12s-0.111 0.053-0.111 0.12zM28.175 22.202c0-0.056 0.032-0.087 0.071-0.087s0.071 0.031 0.071 0.087c0 0.055-0.032 0.086-0.071 0.086s-0.071-0.031-0.071-0.086zM28.606 22.001h-0.038v0.118h-0.001c-0.017-0.027-0.050-0.036-0.074-0.036-0.070 0-0.104 0.054-0.104 0.119s0.035 0.12 0.105 0.12c0.031 0 0.061-0.011 0.073-0.036h0.001v0.031h0.038v-0.316zM28.429 22.204c0-0.045 0.017-0.088 0.069-0.088s0.072 0.042 0.072 0.087c0 0.043-0.019 0.086-0.070 0.086-0.049 0-0.071-0.042-0.071-0.084zM28.822 22.244c-0.007 0.030-0.028 0.045-0.059 0.045-0.050 0-0.073-0.035-0.071-0.075h0.171c0.002-0.055-0.022-0.131-0.103-0.131-0.062 0-0.107 0.050-0.107 0.119 0.002 0.070 0.037 0.12 0.11 0.12 0.051 0 0.088-0.027 0.098-0.078h-0.037zM28.691 22.18c0.003-0.035 0.026-0.065 0.065-0.065 0.037 0 0.064 0.029 0.066 0.065h-0.131zM28.9 22.316h0.038v-0.102c0-0.058 0.022-0.092 0.083-0.092v-0.040c-0.041-0.001-0.066 0.017-0.084 0.054h-0.001v-0.048h-0.035v0.229zM29.056 22.316h0.038v-0.129c0-0.041 0.022-0.072 0.068-0.072 0.029 0 0.046 0.018 0.046 0.046v0.155h0.038v-0.15c0-0.049-0.018-0.084-0.079-0.084-0.033 0-0.058 0.013-0.074 0.042h-0.001v-0.036h-0.035v0.229zM29.304 22.316h0.038v-0.229h-0.038v0.229zM29.342 22.001h-0.038v0.046h0.038v-0.046zM29.382 22.316h0.193v-0.033h-0.146l0.14-0.17v-0.026h-0.178v0.033h0.129l-0.138 0.167v0.029zM29.771 22.244c-0.007 0.030-0.029 0.045-0.059 0.045-0.050 0-0.073-0.035-0.071-0.075h0.171c0.002-0.055-0.023-0.131-0.103-0.131-0.062 0-0.107 0.050-0.107 0.119 0.002 0.070 0.037 0.12 0.11 0.12 0.051 0 0.087-0.027 0.098-0.078h-0.037zM29.64 22.18c0.002-0.035 0.026-0.065 0.065-0.065 0.037 0 0.064 0.029 0.066 0.065h-0.131zM30.055 22.001h-0.038v0.118h-0.001c-0.017-0.027-0.050-0.036-0.074-0.036-0.070 0-0.104 0.054-0.104 0.119s0.035 0.12 0.105 0.12c0.031 0 0.060-0.011 0.073-0.036h0.001v0.031h0.038v-0.316zM29.878 22.204c0-0.045 0.017-0.088 0.069-0.088s0.072 0.042 0.072 0.087c0 0.043-0.019 0.086-0.070 0.086-0.049 0-0.071-0.042-0.071-0.084zM30.288 22.019h-0.038v0.069h-0.039v0.033h0.039v0.146c0 0.042 0.015 0.050 0.055 0.050h0.029v-0.033h-0.017c-0.023 0-0.028-0.003-0.028-0.020v-0.142h0.046v-0.033h-0.046v-0.069zM30.363 22.202c0 0.067 0.039 0.119 0.111 0.119s0.111-0.053 0.111-0.119c0-0.067-0.039-0.12-0.111-0.12s-0.111 0.053-0.111 0.12zM30.403 22.202c0-0.056 0.032-0.087 0.071-0.087s0.071 0.031 0.071 0.087c0 0.055-0.032 0.086-0.071 0.086s-0.071-0.031-0.071-0.086zM20.108 23.005h0.038v-0.142c0-0.017 0.016-0.058 0.061-0.058 0.034 0 0.043 0.021 0.043 0.051v0.15h0.038v-0.142c0-0.035 0.023-0.058 0.060-0.058s0.044 0.023 0.044 0.051v0.15h0.038v-0.168c0-0.047-0.031-0.066-0.076-0.066-0.029 0-0.056 0.015-0.072 0.039-0.009-0.028-0.035-0.039-0.063-0.039-0.031 0-0.057 0.013-0.074 0.039h-0.001v-0.034h-0.035v0.229zM20.643 22.932c-0.007 0.030-0.028 0.045-0.059 0.045-0.050 0-0.073-0.035-0.071-0.075h0.171c0.002-0.055-0.023-0.131-0.104-0.131-0.062 0-0.108 0.050-0.108 0.119 0.002 0.070 0.037 0.12 0.11 0.12 0.051 0 0.088-0.027 0.098-0.078h-0.037zM20.513 22.868c0.003-0.035 0.026-0.065 0.065-0.065 0.037 0 0.064 0.029 0.066 0.065h-0.131zM20.881 22.932c-0.007 0.030-0.028 0.045-0.059 0.045-0.050 0-0.073-0.035-0.071-0.075h0.171c0.002-0.055-0.023-0.131-0.104-0.131-0.062 0-0.108 0.050-0.108 0.119 0.002 0.070 0.037 0.12 0.11 0.12 0.051 0 0.088-0.027 0.098-0.078h-0.037zM20.75 22.868c0.003-0.035 0.026-0.065 0.065-0.065 0.037 0 0.064 0.029 0.066 0.065h-0.131zM21.013 22.707h-0.038v0.069h-0.039v0.033h0.039v0.146c0 0.042 0.015 0.050 0.054 0.050h0.029v-0.033h-0.017c-0.023 0-0.028-0.003-0.028-0.020v-0.142h0.046v-0.033h-0.046v-0.069zM21.275 22.707h-0.038v0.069h-0.039v0.033h0.039v0.146c0 0.042 0.015 0.050 0.054 0.050h0.029v-0.033h-0.017c-0.023 0-0.028-0.003-0.028-0.020v-0.142h0.046v-0.033h-0.046v-0.069zM21.363 23.005h0.038v-0.129c0-0.041 0.022-0.072 0.068-0.072 0.029 0 0.046 0.018 0.046 0.046v0.155h0.038v-0.15c0-0.049-0.019-0.084-0.079-0.084-0.027 0-0.060 0.012-0.072 0.039h-0.001v-0.121h-0.038v0.316zM21.767 22.932c-0.007 0.030-0.028 0.045-0.059 0.045-0.050 0-0.073-0.035-0.071-0.075h0.171c0.002-0.055-0.023-0.131-0.104-0.131-0.062 0-0.108 0.050-0.108 0.119 0.002 0.070 0.037 0.12 0.11 0.12 0.051 0 0.088-0.027 0.098-0.078h-0.037zM21.636 22.868c0.003-0.035 0.026-0.065 0.065-0.065 0.037 0 0.064 0.029 0.066 0.065h-0.131zM22.127 22.932c-0.007 0.030-0.028 0.045-0.059 0.045-0.050 0-0.073-0.035-0.071-0.075h0.171c0.002-0.055-0.023-0.131-0.104-0.131-0.062 0-0.108 0.050-0.108 0.119 0.002 0.070 0.037 0.12 0.11 0.12 0.051 0 0.088-0.027 0.098-0.078h-0.037zM21.997 22.868c0.003-0.035 0.026-0.065 0.065-0.065 0.037 0 0.064 0.029 0.066 0.065h-0.131zM22.183 23.005h0.046l0.064-0.095 0.064 0.095h0.048l-0.088-0.123 0.079-0.105h-0.045l-0.057 0.080-0.055-0.080h-0.048l0.080 0.108-0.086 0.12zM22.614 22.888c0 0.045-0.017 0.088-0.069 0.088s-0.072-0.042-0.072-0.087c0-0.043 0.019-0.086 0.070-0.086 0.049 0 0.071 0.042 0.071 0.084zM22.437 23.092h0.038v-0.118h0.001c0.017 0.027 0.050 0.036 0.074 0.036 0.070 0 0.104-0.054 0.104-0.119s-0.035-0.12-0.105-0.12c-0.031 0-0.061 0.011-0.073 0.036h-0.001v-0.031h-0.038v0.316zM22.856 22.932c-0.007 0.030-0.028 0.045-0.059 0.045-0.050 0-0.073-0.035-0.071-0.075h0.171c0.002-0.055-0.023-0.131-0.104-0.131-0.062 0-0.108 0.050-0.108 0.119 0.002 0.070 0.037 0.12 0.11 0.12 0.051 0 0.088-0.027 0.098-0.078h-0.037zM22.726 22.868c0.003-0.035 0.026-0.065 0.065-0.065 0.037 0 0.064 0.029 0.066 0.065h-0.131zM23.13 22.849c-0.005-0.054-0.047-0.079-0.099-0.079-0.073 0-0.108 0.054-0.108 0.123s0.037 0.117 0.107 0.117c0.058 0 0.092-0.033 0.101-0.089h-0.038c-0.005 0.035-0.027 0.056-0.063 0.056-0.048 0-0.067-0.042-0.067-0.084 0-0.046 0.017-0.089 0.071-0.089 0.031 0 0.051 0.017 0.057 0.046h0.039zM23.226 22.707h-0.038v0.069h-0.039v0.033h0.039v0.146c0 0.042 0.015 0.050 0.054 0.050h0.029v-0.033h-0.017c-0.023 0-0.028-0.003-0.028-0.020v-0.142h0.046v-0.033h-0.046v-0.069zM23.455 22.925c0 0.021-0.020 0.052-0.070 0.052-0.023 0-0.044-0.009-0.044-0.034 0-0.028 0.021-0.037 0.046-0.041s0.054-0.005 0.068-0.015v0.038zM23.516 22.975c-0.005 0.002-0.008 0.002-0.012 0.002-0.012 0-0.012-0.008-0.012-0.026v-0.118c0-0.054-0.045-0.063-0.086-0.063-0.051 0-0.095 0.020-0.097 0.077h0.038c0.002-0.034 0.025-0.043 0.057-0.043 0.024 0 0.051 0.005 0.051 0.038 0 0.028-0.035 0.026-0.077 0.034-0.039 0.008-0.077 0.019-0.077 0.070 0 0.046 0.034 0.064 0.076 0.064 0.032 0 0.060-0.011 0.081-0.035 0 0.025 0.012 0.035 0.032 0.035 0.012 0 0.020-0.002 0.027-0.006v-0.029zM23.603 22.707h-0.038v0.069h-0.039v0.033h0.039v0.146c0 0.042 0.015 0.050 0.054 0.050h0.029v-0.033h-0.017c-0.023 0-0.028-0.003-0.028-0.020v-0.142h0.046v-0.033h-0.046v-0.069zM23.692 23.005h0.038v-0.229h-0.038v0.229zM23.73 22.689h-0.038v0.046h0.038v-0.046zM23.776 22.89c0 0.067 0.038 0.119 0.111 0.119s0.111-0.053 0.111-0.119c0-0.067-0.038-0.12-0.111-0.12s-0.111 0.053-0.111 0.12zM23.816 22.89c0-0.056 0.032-0.087 0.071-0.087s0.071 0.031 0.071 0.087c0 0.055-0.032 0.086-0.071 0.086s-0.071-0.031-0.071-0.086zM24.042 23.005h0.038v-0.129c0-0.041 0.022-0.072 0.068-0.072 0.029 0 0.046 0.018 0.046 0.046v0.155h0.038v-0.15c0-0.049-0.019-0.084-0.079-0.084-0.033 0-0.058 0.013-0.074 0.042h-0.001v-0.036h-0.035v0.229zM24.273 22.933c0.002 0.057 0.046 0.077 0.097 0.077 0.046 0 0.097-0.018 0.097-0.072 0-0.044-0.037-0.057-0.075-0.065-0.035-0.008-0.075-0.013-0.075-0.040 0-0.023 0.026-0.029 0.049-0.029 0.025 0 0.050 0.009 0.053 0.038h0.038c-0.003-0.056-0.043-0.072-0.094-0.072-0.040 0-0.085 0.019-0.085 0.065 0 0.044 0.038 0.056 0.075 0.065s0.075 0.013 0.075 0.042c0 0.029-0.032 0.034-0.055 0.034-0.031 0-0.060-0.011-0.061-0.044h-0.038zM24.62 22.89c0 0.067 0.038 0.119 0.111 0.119s0.111-0.053 0.111-0.119c0-0.067-0.038-0.12-0.111-0.12s-0.111 0.053-0.111 0.12zM24.66 22.89c0-0.056 0.032-0.087 0.071-0.087s0.071 0.031 0.071 0.087c0 0.055-0.032 0.086-0.071 0.086s-0.071-0.031-0.071-0.086zM24.902 23.005h0.038v-0.196h0.044v-0.033h-0.044v-0.032c0-0.020 0.011-0.026 0.029-0.026 0.007 0 0.015 0.001 0.021 0.003v-0.033c-0.007-0.002-0.017-0.004-0.024-0.004-0.041 0-0.063 0.019-0.063 0.057v0.034h-0.039v0.033h0.039v0.196zM25.193 22.707h-0.038v0.069h-0.039v0.033h0.039v0.146c0 0.042 0.015 0.050 0.054 0.050h0.029v-0.033h-0.017c-0.024 0-0.028-0.003-0.028-0.020v-0.142h0.045v-0.033h-0.045v-0.069zM25.28 23.005h0.038v-0.129c0-0.041 0.022-0.072 0.068-0.072 0.029 0 0.046 0.018 0.046 0.046v0.155h0.038v-0.15c0-0.049-0.018-0.084-0.079-0.084-0.028 0-0.060 0.012-0.072 0.039h-0.001v-0.121h-0.038v0.316zM25.684 22.932c-0.007 0.030-0.028 0.045-0.059 0.045-0.050 0-0.073-0.035-0.071-0.075h0.171c0.002-0.055-0.022-0.131-0.103-0.131-0.062 0-0.107 0.050-0.107 0.119 0.002 0.070 0.037 0.12 0.11 0.12 0.051 0 0.088-0.027 0.098-0.078h-0.037zM25.553 22.868c0.003-0.035 0.026-0.065 0.065-0.065 0.037 0 0.064 0.029 0.066 0.065h-0.131zM25.887 23.005h0.038v-0.142c0-0.017 0.016-0.058 0.061-0.058 0.034 0 0.043 0.021 0.043 0.051v0.15h0.038v-0.142c0-0.035 0.023-0.058 0.060-0.058s0.044 0.023 0.044 0.051v0.15h0.038v-0.168c0-0.047-0.030-0.066-0.076-0.066-0.029 0-0.056 0.015-0.072 0.039-0.009-0.028-0.035-0.039-0.063-0.039-0.031 0-0.057 0.013-0.074 0.039h-0.001v-0.034h-0.035v0.229zM26.251 22.89c0 0.067 0.039 0.119 0.111 0.119s0.111-0.053 0.111-0.119c0-0.067-0.039-0.12-0.111-0.12s-0.111 0.053-0.111 0.12zM26.291 22.89c0-0.056 0.032-0.087 0.071-0.087s0.071 0.031 0.071 0.087c0 0.055-0.032 0.086-0.071 0.086s-0.071-0.031-0.071-0.086zM26.503 22.933c0.002 0.057 0.045 0.077 0.097 0.077 0.046 0 0.097-0.018 0.097-0.072 0-0.044-0.037-0.057-0.075-0.065-0.035-0.008-0.075-0.013-0.075-0.040 0-0.023 0.026-0.029 0.049-0.029 0.025 0 0.050 0.009 0.053 0.038h0.038c-0.003-0.056-0.044-0.072-0.094-0.072-0.040 0-0.085 0.019-0.085 0.065 0 0.044 0.038 0.056 0.075 0.065s0.075 0.013 0.075 0.042c0 0.029-0.032 0.034-0.055 0.034-0.031 0-0.060-0.011-0.061-0.044h-0.038zM26.791 22.707h-0.038v0.069h-0.039v0.033h0.039v0.146c0 0.042 0.015 0.050 0.054 0.050h0.029v-0.033h-0.017c-0.024 0-0.028-0.003-0.028-0.020v-0.142h0.045v-0.033h-0.045v-0.069zM27.206 22.689h-0.038v0.118h-0.001c-0.017-0.027-0.050-0.036-0.074-0.036-0.070 0-0.104 0.054-0.104 0.119s0.035 0.12 0.105 0.12c0.031 0 0.060-0.011 0.073-0.036h0.001v0.031h0.038v-0.316zM27.029 22.892c0-0.045 0.017-0.088 0.069-0.088s0.072 0.042 0.072 0.087c0 0.043-0.019 0.086-0.070 0.086-0.049 0-0.071-0.042-0.071-0.084zM27.422 22.932c-0.007 0.030-0.028 0.045-0.059 0.045-0.050 0-0.073-0.035-0.071-0.075h0.171c0.002-0.055-0.023-0.131-0.103-0.131-0.062 0-0.108 0.050-0.108 0.119 0.002 0.070 0.037 0.12 0.11 0.12 0.051 0 0.087-0.027 0.098-0.078h-0.037zM27.291 22.868c0.003-0.035 0.026-0.065 0.066-0.065 0.037 0 0.064 0.029 0.066 0.065h-0.131zM27.502 23.005h0.038v-0.142c0-0.017 0.016-0.058 0.061-0.058 0.034 0 0.043 0.021 0.043 0.051v0.15h0.038v-0.142c0-0.035 0.023-0.058 0.060-0.058s0.044 0.023 0.044 0.051v0.15h0.038v-0.168c0-0.047-0.031-0.066-0.076-0.066-0.029 0-0.056 0.015-0.072 0.039-0.009-0.028-0.035-0.039-0.063-0.039-0.031 0-0.057 0.013-0.074 0.039h-0.001v-0.034h-0.035v0.229zM28.020 22.925c0 0.021-0.020 0.052-0.070 0.052-0.023 0-0.044-0.009-0.044-0.034 0-0.028 0.021-0.037 0.046-0.041s0.054-0.005 0.068-0.015v0.038zM28.081 22.975c-0.005 0.002-0.009 0.002-0.012 0.002-0.012 0-0.012-0.008-0.012-0.026v-0.118c0-0.054-0.045-0.063-0.086-0.063-0.051 0-0.095 0.020-0.097 0.077h0.038c0.002-0.034 0.025-0.043 0.057-0.043 0.024 0 0.051 0.005 0.051 0.038 0 0.028-0.035 0.026-0.077 0.034-0.039 0.008-0.077 0.019-0.077 0.070 0 0.046 0.034 0.064 0.076 0.064 0.032 0 0.060-0.011 0.080-0.035 0 0.025 0.013 0.035 0.032 0.035 0.012 0 0.020-0.002 0.027-0.006v-0.029zM28.116 23.005h0.038v-0.129c0-0.041 0.022-0.072 0.068-0.072 0.029 0 0.046 0.018 0.046 0.046v0.155h0.038v-0.15c0-0.049-0.018-0.084-0.079-0.084-0.033 0-0.058 0.013-0.074 0.042h-0.001v-0.036h-0.035v0.229zM28.567 22.689h-0.038v0.118h-0.001c-0.017-0.027-0.050-0.036-0.074-0.036-0.070 0-0.104 0.054-0.104 0.119s0.035 0.12 0.105 0.12c0.031 0 0.061-0.011 0.073-0.036h0.001v0.031h0.038v-0.316zM28.39 22.892c0-0.045 0.017-0.088 0.069-0.088s0.072 0.042 0.072 0.087c0 0.043-0.019 0.086-0.070 0.086-0.049 0-0.071-0.042-0.071-0.084zM28.626 23.005h0.038v-0.229h-0.038v0.229zM28.664 22.689h-0.038v0.046h0.038v-0.046zM28.722 23.005h0.038v-0.129c0-0.041 0.022-0.072 0.068-0.072 0.029 0 0.046 0.018 0.046 0.046v0.155h0.038v-0.15c0-0.049-0.019-0.084-0.079-0.084-0.033 0-0.058 0.013-0.074 0.042h-0.001v-0.036h-0.035v0.229zM29.060 22.974c-0.050 0-0.065-0.046-0.065-0.087 0-0.044 0.019-0.083 0.068-0.083s0.065 0.042 0.065 0.082c0 0.043-0.019 0.088-0.068 0.088zM29.165 22.776h-0.035v0.033h-0c-0.014-0.025-0.039-0.038-0.068-0.038-0.079 0-0.106 0.067-0.106 0.121 0 0.062 0.034 0.116 0.102 0.116 0.029 0 0.059-0.014 0.071-0.042h0.001v0.015c0 0.051-0.019 0.087-0.069 0.087-0.025 0-0.058-0.010-0.059-0.037h-0.038c0.002 0.050 0.052 0.067 0.095 0.067 0.072 0 0.106-0.038 0.106-0.112v-0.209zM29.437 22.974c-0.049 0-0.064-0.046-0.064-0.087 0-0.044 0.019-0.083 0.068-0.083s0.065 0.042 0.065 0.082c0 0.043-0.019 0.088-0.068 0.088zM29.543 22.776h-0.035v0.033h-0c-0.014-0.025-0.039-0.038-0.068-0.038-0.079 0-0.106 0.067-0.106 0.121 0 0.062 0.034 0.116 0.102 0.116 0.029 0 0.059-0.014 0.071-0.042h0.001v0.015c0 0.051-0.019 0.087-0.069 0.087-0.025 0-0.058-0.010-0.059-0.037h-0.038c0.002 0.050 0.052 0.067 0.095 0.067 0.072 0 0.106-0.038 0.106-0.112v-0.209zM29.789 22.776h-0.038v0.129c0 0.041-0.022 0.072-0.068 0.072-0.029 0-0.046-0.018-0.046-0.046v-0.155h-0.038v0.15c0 0.049 0.018 0.084 0.079 0.084 0.033 0 0.058-0.013 0.074-0.042h0.001v0.036h0.035v-0.229zM30.003 22.932c-0.007 0.030-0.028 0.045-0.059 0.045-0.050 0-0.073-0.035-0.071-0.075h0.171c0.002-0.055-0.023-0.131-0.103-0.131-0.062 0-0.108 0.050-0.108 0.119 0.002 0.070 0.037 0.12 0.11 0.12 0.051 0 0.087-0.027 0.098-0.078h-0.037zM29.873 22.868c0.003-0.035 0.026-0.065 0.066-0.065 0.037 0 0.064 0.029 0.066 0.065h-0.131zM30.068 22.933c0.002 0.057 0.046 0.077 0.097 0.077 0.046 0 0.097-0.018 0.097-0.072 0-0.044-0.037-0.057-0.075-0.065-0.035-0.008-0.075-0.013-0.075-0.040 0-0.023 0.026-0.029 0.049-0.029 0.025 0 0.050 0.009 0.053 0.038h0.038c-0.003-0.056-0.043-0.072-0.094-0.072-0.040 0-0.085 0.019-0.085 0.065 0 0.044 0.038 0.056 0.075 0.065s0.075 0.013 0.075 0.042c0 0.029-0.032 0.034-0.055 0.034-0.031 0-0.060-0.011-0.061-0.044h-0.038zM30.356 22.707h-0.038v0.069h-0.039v0.033h0.039v0.146c0 0.042 0.015 0.050 0.054 0.050h0.029v-0.033h-0.017c-0.023 0-0.028-0.003-0.028-0.020v-0.142h0.045v-0.033h-0.045v-0.069zM30.429 22.933c0.002 0.057 0.045 0.077 0.097 0.077 0.046 0 0.097-0.018 0.097-0.072 0-0.044-0.037-0.057-0.075-0.065-0.035-0.008-0.075-0.013-0.075-0.040 0-0.023 0.026-0.029 0.049-0.029 0.025 0 0.050 0.009 0.053 0.038h0.038c-0.003-0.056-0.044-0.072-0.094-0.072-0.040 0-0.085 0.019-0.085 0.065 0 0.044 0.038 0.056 0.075 0.065s0.075 0.013 0.075 0.042c0 0.029-0.032 0.034-0.055 0.034-0.031 0-0.060-0.011-0.061-0.044h-0.038zM30.673 23.005h0.049v-0.049h-0.049v0.049zM20.484 23.377h-0.042l-0.064 0.263h-0.001l-0.070-0.263h-0.046l-0.071 0.263h-0.001l-0.062-0.263h-0.043l0.081 0.316h0.044l0.073-0.265h0.001l0.072 0.265h0.044l0.084-0.316zM20.651 23.62c-0.007 0.030-0.028 0.045-0.059 0.045-0.050 0-0.073-0.035-0.071-0.075h0.171c0.002-0.055-0.023-0.131-0.104-0.131-0.062 0-0.108 0.050-0.108 0.119 0.002 0.070 0.037 0.12 0.11 0.12 0.051 0 0.088-0.027 0.098-0.078h-0.037zM20.52 23.557c0.003-0.035 0.026-0.065 0.065-0.065 0.037 0 0.064 0.029 0.066 0.065h-0.131zM20.841 23.579c0 0.067 0.038 0.119 0.111 0.119s0.111-0.053 0.111-0.119c0-0.067-0.038-0.12-0.111-0.12s-0.111 0.053-0.111 0.12zM20.881 23.579c0-0.056 0.032-0.087 0.071-0.087s0.071 0.031 0.071 0.087c0 0.055-0.032 0.086-0.071 0.086s-0.071-0.031-0.071-0.086zM21.123 23.693h0.038v-0.196h0.044v-0.033h-0.044v-0.032c0-0.020 0.011-0.026 0.029-0.026 0.007 0 0.015 0.001 0.021 0.003v-0.033c-0.007-0.002-0.017-0.004-0.024-0.004-0.041 0-0.063 0.019-0.063 0.057v0.034h-0.038v0.033h0.038v0.196zM21.246 23.693h0.038v-0.196h0.044v-0.033h-0.044v-0.032c0-0.020 0.011-0.026 0.029-0.026 0.007 0 0.015 0.001 0.021 0.003v-0.033c-0.007-0.002-0.017-0.004-0.024-0.004-0.041 0-0.063 0.019-0.063 0.057v0.034h-0.038v0.033h0.038v0.196zM21.519 23.62c-0.007 0.030-0.028 0.045-0.059 0.045-0.050 0-0.073-0.035-0.071-0.075h0.171c0.002-0.055-0.023-0.131-0.104-0.131-0.062 0-0.108 0.050-0.108 0.119 0.002 0.070 0.037 0.12 0.11 0.12 0.051 0 0.088-0.027 0.098-0.078h-0.037zM21.389 23.557c0.003-0.035 0.026-0.065 0.065-0.065 0.037 0 0.064 0.029 0.066 0.065h-0.131zM21.598 23.693h0.038v-0.102c0-0.058 0.022-0.092 0.083-0.092v-0.040c-0.041-0.001-0.066 0.017-0.084 0.054h-0.001v-0.048h-0.035v0.229zM21.872 23.693h0.038v-0.316h-0.038v0.316zM22.157 23.464h-0.038v0.129c0 0.041-0.022 0.072-0.068 0.072-0.029 0-0.046-0.018-0.046-0.046v-0.155h-0.038v0.15c0 0.049 0.019 0.084 0.079 0.084 0.033 0 0.058-0.013 0.074-0.042h0.001v0.036h0.035v-0.229zM22.189 23.693h0.046l0.064-0.095 0.064 0.095h0.048l-0.088-0.123 0.079-0.105h-0.045l-0.057 0.080-0.055-0.080h-0.048l0.080 0.108-0.086 0.12zM22.632 23.464h-0.038v0.129c0 0.041-0.022 0.072-0.068 0.072-0.029 0-0.046-0.018-0.046-0.046v-0.155h-0.038v0.15c0 0.049 0.019 0.084 0.079 0.084 0.033 0 0.058-0.013 0.074-0.042h0.001v0.036h0.035v-0.229zM22.687 23.693h0.038v-0.102c0-0.058 0.022-0.092 0.083-0.092v-0.040c-0.041-0.001-0.066 0.017-0.084 0.054h-0.001v-0.048h-0.035v0.229zM22.838 23.693h0.038v-0.229h-0.038v0.229zM22.875 23.377h-0.038v0.046h0.038v-0.046zM22.921 23.579c0 0.067 0.038 0.119 0.111 0.119s0.111-0.053 0.111-0.119c0-0.067-0.038-0.12-0.111-0.12s-0.111 0.053-0.111 0.12zM22.961 23.579c0-0.056 0.032-0.087 0.071-0.087s0.071 0.031 0.071 0.087c0 0.055-0.032 0.086-0.071 0.086s-0.071-0.031-0.071-0.086zM23.377 23.464h-0.038v0.129c0 0.041-0.022 0.072-0.068 0.072-0.029 0-0.046-0.018-0.046-0.046v-0.155h-0.038v0.15c0 0.049 0.019 0.084 0.079 0.084 0.033 0 0.058-0.013 0.074-0.042h0.001v0.036h0.035v-0.229zM23.419 23.621c0.002 0.057 0.046 0.077 0.097 0.077 0.046 0 0.097-0.018 0.097-0.072 0-0.044-0.037-0.057-0.075-0.065-0.035-0.008-0.075-0.013-0.075-0.040 0-0.023 0.026-0.029 0.049-0.029 0.025 0 0.050 0.009 0.053 0.038h0.038c-0.003-0.056-0.043-0.072-0.094-0.072-0.040 0-0.085 0.019-0.085 0.065 0 0.044 0.038 0.056 0.075 0.065s0.075 0.013 0.075 0.042c0 0.029-0.032 0.034-0.055 0.034-0.031 0-0.060-0.011-0.061-0.044h-0.038zM23.777 23.693h0.038v-0.102c0-0.058 0.022-0.092 0.083-0.092v-0.040c-0.041-0.001-0.066 0.017-0.084 0.054h-0.001v-0.048h-0.035v0.229zM23.905 23.579c0 0.067 0.038 0.119 0.111 0.119s0.111-0.053 0.111-0.119c0-0.067-0.038-0.12-0.111-0.12s-0.111 0.053-0.111 0.12zM23.945 23.579c0-0.056 0.032-0.087 0.071-0.087s0.071 0.031 0.071 0.087c0 0.055-0.032 0.086-0.071 0.086s-0.071-0.031-0.071-0.086zM24.159 23.579c0 0.067 0.038 0.119 0.111 0.119s0.111-0.053 0.111-0.119c0-0.067-0.038-0.12-0.111-0.12s-0.111 0.053-0.111 0.12zM24.199 23.579c0-0.056 0.032-0.087 0.071-0.087s0.071 0.031 0.071 0.087c0 0.055-0.032 0.086-0.071 0.086s-0.071-0.031-0.071-0.086zM24.425 23.693h0.038v-0.142c0-0.017 0.016-0.058 0.061-0.058 0.034 0 0.043 0.021 0.043 0.051v0.15h0.038v-0.142c0-0.035 0.023-0.058 0.060-0.058s0.044 0.023 0.044 0.051v0.15h0.038v-0.168c0-0.047-0.030-0.066-0.076-0.066-0.029 0-0.056 0.015-0.072 0.039-0.009-0.028-0.035-0.039-0.063-0.039-0.031 0-0.057 0.013-0.074 0.039h-0.001v-0.034h-0.035v0.229zM24.788 23.621c0.002 0.057 0.046 0.077 0.097 0.077 0.046 0 0.097-0.018 0.097-0.072 0-0.044-0.037-0.057-0.075-0.065-0.035-0.008-0.075-0.013-0.075-0.040 0-0.023 0.026-0.029 0.049-0.029 0.025 0 0.050 0.009 0.053 0.038h0.038c-0.003-0.056-0.043-0.072-0.094-0.072-0.040 0-0.085 0.019-0.085 0.065 0 0.044 0.038 0.056 0.075 0.065s0.075 0.013 0.075 0.042c0 0.029-0.032 0.034-0.055 0.034-0.031 0-0.060-0.011-0.061-0.044h-0.038zM25.032 23.693h0.026c0.001 0.014-0.006 0.036-0.026 0.043v0.022c0.034-0.010 0.049-0.036 0.049-0.069v-0.045h-0.049v0.049zM25.27 23.693h0.038v-0.129c0-0.041 0.022-0.072 0.068-0.072 0.029 0 0.046 0.018 0.046 0.046v0.155h0.038v-0.15c0-0.049-0.019-0.084-0.079-0.084-0.033 0-0.058 0.013-0.074 0.042h-0.001v-0.036h-0.035v0.229zM25.705 23.464h-0.038v0.129c0 0.041-0.022 0.072-0.068 0.072-0.029 0-0.046-0.018-0.046-0.046v-0.155h-0.038v0.15c0 0.049 0.018 0.084 0.079 0.084 0.033 0 0.058-0.013 0.074-0.042h0.001v0.036h0.035v-0.229zM25.762 23.693h0.038v-0.142c0-0.017 0.016-0.058 0.061-0.058 0.034 0 0.043 0.021 0.043 0.051v0.15h0.038v-0.142c0-0.035 0.023-0.058 0.060-0.058s0.044 0.023 0.044 0.051v0.15h0.038v-0.168c0-0.047-0.030-0.066-0.076-0.066-0.029 0-0.056 0.015-0.072 0.039-0.009-0.028-0.035-0.039-0.063-0.039-0.031 0-0.057 0.013-0.074 0.039h-0.001v-0.034h-0.035v0.229zM26.297 23.62c-0.007 0.030-0.028 0.045-0.059 0.045-0.050 0-0.073-0.035-0.071-0.075h0.171c0.002-0.055-0.023-0.131-0.103-0.131-0.062 0-0.108 0.050-0.108 0.119 0.002 0.070 0.037 0.12 0.11 0.12 0.051 0 0.087-0.027 0.098-0.078h-0.037zM26.166 23.557c0.003-0.035 0.026-0.065 0.066-0.065 0.037 0 0.064 0.029 0.066 0.065h-0.131zM26.375 23.693h0.038v-0.102c0-0.058 0.022-0.092 0.083-0.092v-0.040c-0.041-0.001-0.066 0.017-0.084 0.054h-0.001v-0.048h-0.035v0.229zM26.504 23.579c0 0.067 0.038 0.119 0.111 0.119s0.111-0.053 0.111-0.119c0-0.067-0.038-0.12-0.111-0.12s-0.111 0.053-0.111 0.12zM26.544 23.579c0-0.056 0.032-0.087 0.071-0.087s0.071 0.031 0.071 0.087c0 0.055-0.032 0.086-0.071 0.086s-0.071-0.031-0.071-0.086zM26.959 23.464h-0.038v0.129c0 0.041-0.022 0.072-0.068 0.072-0.029 0-0.046-0.018-0.046-0.046v-0.155h-0.038v0.15c0 0.049 0.018 0.084 0.079 0.084 0.033 0 0.058-0.013 0.074-0.042h0.001v0.036h0.035v-0.229zM27.001 23.621c0.002 0.057 0.046 0.077 0.097 0.077 0.046 0 0.097-0.018 0.097-0.072 0-0.044-0.037-0.057-0.075-0.065-0.035-0.008-0.075-0.013-0.075-0.040 0-0.023 0.026-0.029 0.049-0.029 0.025 0 0.050 0.009 0.053 0.038h0.038c-0.003-0.056-0.043-0.072-0.094-0.072-0.040 0-0.086 0.019-0.086 0.065 0 0.044 0.038 0.056 0.075 0.065s0.075 0.013 0.075 0.042c0 0.029-0.032 0.034-0.055 0.034-0.031 0-0.060-0.011-0.062-0.044h-0.038zM27.376 23.693h0.038v-0.196h0.044v-0.033h-0.044v-0.032c0-0.020 0.011-0.026 0.029-0.026 0.007 0 0.015 0.001 0.021 0.003v-0.033c-0.007-0.002-0.017-0.004-0.024-0.004-0.041 0-0.063 0.019-0.063 0.057v0.034h-0.039v0.033h0.039v0.196zM27.633 23.613c0 0.021-0.020 0.052-0.070 0.052-0.023 0-0.044-0.009-0.044-0.034 0-0.028 0.021-0.037 0.046-0.041s0.054-0.005 0.068-0.015v0.038zM27.694 23.663c-0.005 0.002-0.008 0.002-0.012 0.002-0.012 0-0.012-0.008-0.012-0.026v-0.118c0-0.054-0.044-0.063-0.086-0.063-0.051 0-0.095 0.020-0.097 0.077h0.038c0.002-0.034 0.025-0.043 0.057-0.043 0.024 0 0.051 0.005 0.051 0.038 0 0.028-0.035 0.026-0.077 0.034-0.039 0.008-0.077 0.019-0.077 0.070 0 0.046 0.034 0.064 0.076 0.064 0.032 0 0.060-0.011 0.080-0.035 0 0.025 0.013 0.035 0.032 0.035 0.012 0 0.020-0.002 0.027-0.006v-0.029zM27.923 23.538c-0.005-0.054-0.047-0.079-0.099-0.079-0.073 0-0.108 0.054-0.108 0.123s0.037 0.117 0.107 0.117c0.058 0 0.093-0.033 0.101-0.089h-0.039c-0.005 0.035-0.027 0.056-0.063 0.056-0.048 0-0.067-0.042-0.067-0.084 0-0.046 0.017-0.089 0.071-0.089 0.031 0 0.051 0.017 0.057 0.046h0.039zM27.969 23.693h0.038v-0.229h-0.038v0.229zM28.006 23.377h-0.038v0.046h0.038v-0.046zM28.067 23.693h0.038v-0.316h-0.038v0.316zM28.165 23.693h0.038v-0.229h-0.038v0.229zM28.202 23.377h-0.038v0.046h0.038v-0.046zM28.313 23.395h-0.038v0.069h-0.039v0.033h0.039v0.146c0 0.042 0.015 0.050 0.054 0.050h0.029v-0.033h-0.017c-0.024 0-0.028-0.003-0.028-0.020v-0.142h0.045v-0.033h-0.045v-0.069zM28.402 23.693h0.038v-0.229h-0.038v0.229zM28.44 23.377h-0.038v0.046h0.038v-0.046zM28.656 23.62c-0.007 0.030-0.029 0.045-0.059 0.045-0.050 0-0.073-0.035-0.071-0.075h0.171c0.002-0.055-0.023-0.131-0.103-0.131-0.062 0-0.107 0.050-0.107 0.119 0.002 0.070 0.037 0.12 0.11 0.12 0.051 0 0.087-0.027 0.098-0.078h-0.037zM28.526 23.557c0.002-0.035 0.026-0.065 0.065-0.065 0.037 0 0.064 0.029 0.066 0.065h-0.131zM28.721 23.621c0.002 0.057 0.046 0.077 0.097 0.077 0.046 0 0.097-0.018 0.097-0.072 0-0.044-0.037-0.057-0.075-0.065-0.035-0.008-0.075-0.013-0.075-0.040 0-0.023 0.026-0.029 0.049-0.029 0.025 0 0.050 0.009 0.053 0.038h0.038c-0.003-0.056-0.043-0.072-0.094-0.072-0.040 0-0.086 0.019-0.086 0.065 0 0.044 0.038 0.056 0.075 0.065s0.075 0.013 0.075 0.042c0 0.029-0.032 0.034-0.055 0.034-0.031 0-0.060-0.011-0.062-0.044h-0.038zM28.965 23.693h0.026c0.001 0.014-0.006 0.036-0.026 0.043v0.022c0.034-0.010 0.049-0.036 0.049-0.069v-0.045h-0.049v0.049zM29.345 23.613c0 0.021-0.020 0.052-0.070 0.052-0.023 0-0.044-0.009-0.044-0.034 0-0.028 0.021-0.037 0.046-0.041s0.054-0.005 0.068-0.015v0.038zM29.406 23.663c-0.005 0.002-0.008 0.002-0.012 0.002-0.012 0-0.012-0.008-0.012-0.026v-0.118c0-0.054-0.045-0.063-0.086-0.063-0.051 0-0.095 0.020-0.097 0.077h0.038c0.002-0.034 0.025-0.043 0.057-0.043 0.024 0 0.051 0.005 0.051 0.038 0 0.028-0.035 0.026-0.077 0.034-0.039 0.008-0.077 0.019-0.077 0.070 0 0.046 0.034 0.064 0.076 0.064 0.032 0 0.060-0.011 0.081-0.035 0 0.025 0.012 0.035 0.032 0.035 0.012 0 0.020-0.002 0.027-0.006v-0.029zM29.441 23.693h0.038v-0.129c0-0.041 0.022-0.072 0.068-0.072 0.029 0 0.046 0.018 0.046 0.046v0.155h0.038v-0.15c0-0.049-0.019-0.084-0.079-0.084-0.033 0-0.058 0.013-0.074 0.042h-0.001v-0.036h-0.035v0.229zM29.891 23.377h-0.038v0.118h-0.001c-0.017-0.027-0.051-0.036-0.074-0.036-0.070 0-0.104 0.054-0.104 0.119s0.035 0.12 0.105 0.12c0.031 0 0.060-0.011 0.073-0.036h0.001v0.031h0.038v-0.316zM29.714 23.58c0-0.045 0.017-0.088 0.069-0.088s0.072 0.042 0.072 0.087c0 0.043-0.020 0.086-0.070 0.086-0.049 0-0.071-0.042-0.071-0.084zM20.266 24.308c-0.007 0.030-0.028 0.045-0.059 0.045-0.050 0-0.073-0.035-0.071-0.075h0.171c0.002-0.055-0.023-0.131-0.104-0.131-0.062 0-0.108 0.050-0.108 0.119 0.002 0.070 0.037 0.12 0.11 0.12 0.051 0 0.088-0.027 0.098-0.078h-0.037zM20.136 24.245c0.003-0.035 0.026-0.065 0.065-0.065 0.037 0 0.064 0.029 0.066 0.065h-0.131zM20.321 24.381h0.046l0.064-0.095 0.064 0.095h0.048l-0.088-0.123 0.079-0.105h-0.045l-0.057 0.080-0.055-0.080h-0.048l0.080 0.108-0.086 0.12zM20.769 24.226c-0.005-0.054-0.047-0.079-0.099-0.079-0.073 0-0.108 0.054-0.108 0.123s0.037 0.117 0.107 0.117c0.058 0 0.092-0.033 0.101-0.089h-0.038c-0.005 0.035-0.027 0.056-0.063 0.056-0.048 0-0.067-0.042-0.067-0.084 0-0.046 0.017-0.089 0.071-0.089 0.031 0 0.051 0.017 0.057 0.046h0.039zM20.97 24.308c-0.007 0.030-0.028 0.045-0.059 0.045-0.050 0-0.073-0.035-0.071-0.075h0.171c0.002-0.055-0.023-0.131-0.104-0.131-0.062 0-0.108 0.050-0.108 0.119 0.002 0.070 0.037 0.12 0.11 0.12 0.051 0 0.088-0.027 0.098-0.078h-0.037zM20.84 24.245c0.003-0.035 0.026-0.065 0.065-0.065 0.037 0 0.064 0.029 0.066 0.065h-0.131zM21.228 24.265c0 0.045-0.017 0.088-0.069 0.088s-0.072-0.042-0.072-0.087c0-0.043 0.019-0.086 0.070-0.086 0.049 0 0.071 0.042 0.071 0.084zM21.051 24.469h0.038v-0.118h0.001c0.017 0.027 0.050 0.036 0.074 0.036 0.070 0 0.104-0.054 0.104-0.119s-0.035-0.12-0.105-0.12c-0.031 0-0.061 0.011-0.073 0.036h-0.001v-0.031h-0.038v0.316zM21.364 24.084h-0.038v0.069h-0.039v0.033h0.039v0.146c0 0.042 0.015 0.050 0.054 0.050h0.029v-0.033h-0.017c-0.023 0-0.028-0.003-0.028-0.020v-0.142h0.046v-0.033h-0.046v-0.069zM21.454 24.381h0.038v-0.229h-0.038v0.229zM21.492 24.065h-0.038v0.046h0.038v-0.046zM21.537 24.267c0 0.067 0.038 0.119 0.111 0.119s0.111-0.053 0.111-0.119c0-0.067-0.038-0.12-0.111-0.12s-0.111 0.053-0.111 0.12zM21.577 24.267c0-0.056 0.032-0.087 0.071-0.087s0.071 0.031 0.071 0.087c0 0.055-0.032 0.086-0.071 0.086s-0.071-0.031-0.071-0.086zM21.804 24.381h0.038v-0.129c0-0.041 0.022-0.072 0.068-0.072 0.029 0 0.046 0.018 0.046 0.046v0.155h0.038v-0.15c0-0.049-0.019-0.084-0.079-0.084-0.033 0-0.058 0.013-0.074 0.042h-0.001v-0.036h-0.035v0.229zM22.191 24.301c0 0.021-0.020 0.052-0.070 0.052-0.023 0-0.044-0.009-0.044-0.034 0-0.028 0.021-0.037 0.046-0.041s0.054-0.005 0.068-0.015v0.038zM22.252 24.351c-0.005 0.002-0.008 0.002-0.012 0.002-0.012 0-0.012-0.008-0.012-0.026v-0.118c0-0.054-0.045-0.063-0.086-0.063-0.051 0-0.095 0.020-0.097 0.077h0.038c0.002-0.034 0.025-0.043 0.057-0.043 0.024 0 0.051 0.005 0.051 0.038 0 0.028-0.035 0.026-0.077 0.034-0.039 0.008-0.077 0.019-0.077 0.070 0 0.046 0.034 0.064 0.076 0.064 0.032 0 0.060-0.011 0.081-0.035 0 0.025 0.012 0.035 0.032 0.035 0.012 0 0.020-0.002 0.027-0.006v-0.029zM22.29 24.381h0.038v-0.316h-0.038v0.316zM22.494 24.309c0.002 0.057 0.046 0.077 0.097 0.077 0.046 0 0.097-0.018 0.097-0.072 0-0.044-0.037-0.057-0.075-0.065-0.035-0.008-0.075-0.013-0.075-0.040 0-0.023 0.026-0.029 0.049-0.029 0.025 0 0.050 0.009 0.053 0.038h0.038c-0.003-0.056-0.043-0.072-0.094-0.072-0.040 0-0.085 0.019-0.085 0.065 0 0.044 0.038 0.056 0.075 0.065s0.075 0.013 0.075 0.042c0 0.029-0.032 0.034-0.055 0.034-0.031 0-0.060-0.011-0.061-0.044h-0.038zM22.888 24.308c-0.007 0.030-0.028 0.045-0.059 0.045-0.050 0-0.073-0.035-0.071-0.075h0.171c0.002-0.055-0.023-0.131-0.104-0.131-0.062 0-0.108 0.050-0.108 0.119 0.002 0.070 0.037 0.12 0.11 0.12 0.051 0 0.088-0.027 0.098-0.078h-0.037zM22.757 24.245c0.003-0.035 0.026-0.065 0.065-0.065 0.037 0 0.064 0.029 0.066 0.065h-0.131zM22.966 24.381h0.038v-0.102c0-0.058 0.022-0.092 0.083-0.092v-0.040c-0.041-0.001-0.066 0.017-0.084 0.054h-0.001v-0.048h-0.035v0.229zM23.301 24.152h-0.039l-0.062 0.191h-0.001l-0.064-0.191h-0.042l0.085 0.229h0.040l0.084-0.229zM23.338 24.381h0.038v-0.229h-0.038v0.229zM23.376 24.065h-0.038v0.046h0.038v-0.046zM23.628 24.226c-0.005-0.054-0.047-0.079-0.099-0.079-0.073 0-0.108 0.054-0.108 0.123s0.037 0.117 0.107 0.117c0.058 0 0.092-0.033 0.101-0.089h-0.038c-0.005 0.035-0.027 0.056-0.063 0.056-0.048 0-0.067-0.042-0.067-0.084 0-0.046 0.017-0.089 0.071-0.089 0.031 0 0.051 0.017 0.057 0.046h0.039zM23.829 24.308c-0.007 0.030-0.028 0.045-0.059 0.045-0.050 0-0.073-0.035-0.071-0.075h0.171c0.002-0.055-0.023-0.131-0.104-0.131-0.062 0-0.108 0.050-0.108 0.119 0.002 0.070 0.037 0.12 0.11 0.12 0.051 0 0.088-0.027 0.098-0.078h-0.037zM23.699 24.245c0.003-0.035 0.026-0.065 0.065-0.065 0.037 0 0.064 0.029 0.066 0.065h-0.131zM23.918 24.381h0.049v-0.049h-0.049v0.049z"></path>
<path fill="#fcd043" d="M21.811 10.568h0.291l-0.995-2.581h-0.291l0.122 0.317-0.804 2.264h0.029l0.35-0.992h0.914l0.383 0.992zM20.525 9.551l0.428-1.209 0.465 1.209h-0.892zM23.477 9.19c0.383-0.044 0.741-0.192 0.741-0.59 0-0.516-0.612-0.612-1.088-0.612h-0.77v2.581h0.929c0.479 0 1.091-0.173 1.091-0.693 0-0.45-0.468-0.641-0.903-0.686zM23.13 8.017c0.605 0 0.8 0.258 0.8 0.582 0 0.328-0.195 0.582-0.8 0.582h-0.483v-1.165h0.483zM23.289 10.543h-0.641v-1.331h0.641c0.608 0 0.8 0.339 0.8 0.664 0 0.328-0.192 0.667-0.8 0.667zM25.906 7.951c-0.73 0-1.379 0.59-1.379 1.32 0 0.726 0.649 1.316 1.379 1.316 0.726 0 1.379-0.59 1.379-1.316 0-0.73-0.653-1.32-1.379-1.32zM25.906 10.557c-0.645 0-1.069-0.608-1.069-1.287 0-0.682 0.424-1.287 1.069-1.287 0.641 0 1.069 0.605 1.069 1.287 0 0.678-0.428 1.287-1.069 1.287zM29.449 7.988v1.711c0 0.417-0.276 0.811-0.73 0.848-0.535 0.044-0.848-0.324-0.848-0.933v-1.626h-0.291v1.626c0 0.671 0.461 0.973 1.010 0.973 0.52 0 0.885-0.372 0.885-0.888v-1.711h-0.026zM29.731 7.988v0.229l0.929-0.199v2.551h0.288v-2.551l0.929 0.199v-0.229h-2.146z"></path>
<path fill="#fffcf6" d="M29.701 11.183v1.711c0 0.417-0.276 0.811-0.73 0.848-0.535 0.044-0.848-0.324-0.848-0.933v-1.626h-0.291v1.626c0 0.671 0.461 0.973 1.010 0.973 0.52 0 0.885-0.372 0.885-0.888v-1.711h-0.026zM30.32 11.621c0.022-0.262 0.188-0.428 0.56-0.428 0.243 0 0.597 0.162 0.863 0.571v-0.383c-0.199-0.129-0.501-0.236-0.77-0.236-0.586 0-0.793 0.354-0.793 0.66 0 0.929 1.666 0.686 1.567 1.467-0.033 0.284-0.295 0.45-0.641 0.45-0.468 0-0.892-0.361-1.084-0.726v0.501c0.276 0.181 0.671 0.284 0.97 0.284 0.523 0 0.922-0.31 0.922-0.748 0-0.881-1.652-0.675-1.593-1.412z"></path>
<path fill="#fcd043" d="M41.224 20.132h0.068c0.025 0 0.048 0.007 0.048 0.037 0 0.018-0.009 0.049-0.060 0.049h-0.074l0.018-0.086zM41.145 20.35h0.033l0.022-0.105h0.073c0.014 0 0.047-0.006 0.037 0.052-0.005 0.025-0.004 0.044-0.001 0.053h0.034c-0.010-0.020-0.002-0.041-0-0.063 0.002-0.025-0.004-0.047-0.025-0.053v-0.001c0.033-0.005 0.055-0.033 0.055-0.066 0-0.049-0.039-0.063-0.081-0.063h-0.095l-0.052 0.246zM41.413 20.28c0-0.037 0.023-0.086 0.068-0.086 0.032 0 0.047 0.022 0.047 0.050 0 0.035-0.023 0.084-0.066 0.084-0.032 0-0.049-0.020-0.049-0.049zM41.384 20.28c0 0.043 0.028 0.074 0.075 0.074 0.062 0 0.099-0.054 0.099-0.113 0-0.047-0.027-0.074-0.074-0.074-0.062 0-0.1 0.054-0.1 0.112zM41.611 20.28c0-0.037 0.023-0.086 0.068-0.086 0.032 0 0.047 0.022 0.047 0.050 0 0.035-0.023 0.084-0.066 0.084-0.032 0-0.049-0.020-0.049-0.049zM41.582 20.28c0 0.043 0.028 0.074 0.075 0.074 0.062 0 0.099-0.054 0.099-0.113 0-0.047-0.027-0.074-0.074-0.074-0.062 0-0.1 0.054-0.1 0.112zM41.772 20.35h0.029l0.020-0.093c0.004-0.018 0.007-0.028 0.019-0.040 0.010-0.012 0.028-0.023 0.044-0.023s0.025 0.009 0.025 0.023c0 0.004-0.002 0.018-0.005 0.031l-0.021 0.102h0.029l0.020-0.092c0.003-0.015 0.007-0.030 0.016-0.040 0.010-0.013 0.028-0.024 0.045-0.024 0.015 0 0.027 0.010 0.027 0.024 0 0.005-0.001 0.014-0.003 0.019l-0.025 0.113h0.029l0.022-0.107c0.002-0.010 0.005-0.025 0.005-0.035 0-0.029-0.024-0.040-0.049-0.040-0.024 0-0.047 0.013-0.061 0.032-0.005-0.023-0.022-0.032-0.045-0.032-0.024 0-0.047 0.013-0.062 0.031l-0.001-0.001 0.007-0.026h-0.027l-0.038 0.178zM42.218 20.225c0-0.042-0.034-0.056-0.067-0.056s-0.066 0.018-0.066 0.051c0 0.027 0.023 0.039 0.047 0.048s0.047 0.017 0.047 0.034c0 0.020-0.022 0.027-0.041 0.027-0.025 0-0.047-0.008-0.045-0.034h-0.029c-0.001 0.045 0.031 0.060 0.072 0.060 0.034 0 0.073-0.015 0.073-0.055 0-0.028-0.024-0.040-0.047-0.050s-0.047-0.016-0.047-0.033c0-0.018 0.020-0.023 0.038-0.023 0.020 0 0.038 0.010 0.037 0.031h0.029z"></path>
<path fill="#fffcf6" d="M41.791 20.706c0 0.016-0.016 0.040-0.055 0.040-0.018 0-0.034-0.007-0.034-0.026 0-0.022 0.017-0.029 0.036-0.032s0.042-0.004 0.053-0.012v0.030zM41.839 20.745c-0.004 0.001-0.007 0.002-0.009 0.002-0.009 0-0.009-0.006-0.009-0.020v-0.092c0-0.042-0.035-0.049-0.067-0.049-0.040 0-0.074 0.015-0.075 0.060h0.029c0.001-0.026 0.020-0.034 0.044-0.034 0.019 0 0.040 0.004 0.040 0.030 0 0.022-0.028 0.020-0.060 0.026-0.030 0.006-0.060 0.014-0.060 0.055 0 0.035 0.027 0.050 0.059 0.050 0.025 0 0.046-0.009 0.063-0.028 0 0.019 0.010 0.028 0.025 0.028 0.009 0 0.016-0.002 0.021-0.005v-0.023zM41.866 20.768h0.029v-0.1c0-0.032 0.017-0.056 0.053-0.056 0.022 0 0.036 0.014 0.036 0.036v0.12h0.029v-0.117c0-0.038-0.014-0.065-0.061-0.065-0.026 0-0.045 0.010-0.058 0.032h-0.001v-0.028h-0.028v0.178zM42.216 20.522h-0.029v0.092h-0.001c-0.013-0.021-0.039-0.028-0.057-0.028-0.055 0-0.081 0.042-0.081 0.093s0.027 0.094 0.082 0.094c0.025 0 0.047-0.009 0.057-0.028h0.001v0.024h0.029v-0.246zM42.078 20.681c0-0.035 0.014-0.069 0.053-0.069s0.056 0.032 0.056 0.067c0 0.033-0.015 0.067-0.054 0.067-0.038 0-0.055-0.032-0.055-0.066z"></path>
<path fill="#fffcf6" d="M41.275 21.124c0 0.016-0.016 0.040-0.055 0.040-0.018 0-0.034-0.007-0.034-0.026 0-0.022 0.017-0.029 0.036-0.032s0.042-0.004 0.053-0.012v0.030zM41.323 21.162c-0.004 0.001-0.007 0.002-0.009 0.002-0.009 0-0.009-0.006-0.009-0.020v-0.092c0-0.042-0.035-0.049-0.067-0.049-0.040 0-0.074 0.015-0.075 0.060h0.029c0.001-0.026 0.020-0.034 0.044-0.034 0.019 0 0.040 0.004 0.040 0.030 0 0.022-0.028 0.020-0.060 0.026-0.030 0.006-0.060 0.014-0.060 0.055 0 0.035 0.027 0.050 0.059 0.050 0.025 0 0.046-0.009 0.063-0.028 0 0.019 0.010 0.028 0.025 0.028 0.009 0 0.016-0.002 0.021-0.005v-0.023zM41.488 21.095c0 0.035-0.014 0.069-0.053 0.069s-0.056-0.032-0.056-0.067c0-0.033 0.015-0.067 0.054-0.067 0.038 0 0.055 0.032 0.055 0.066zM41.351 21.254h0.029v-0.092h0.001c0.013 0.021 0.039 0.028 0.057 0.028 0.055 0 0.081-0.042 0.081-0.093s-0.027-0.094-0.082-0.094c-0.025 0-0.047 0.009-0.057 0.028h-0.001v-0.024h-0.029v0.246zM41.664 21.124c0 0.016-0.016 0.040-0.054 0.040-0.018 0-0.034-0.007-0.034-0.026 0-0.022 0.016-0.029 0.036-0.032s0.042-0.004 0.053-0.012v0.030zM41.711 21.162c-0.004 0.001-0.007 0.002-0.009 0.002-0.009 0-0.009-0.006-0.009-0.020v-0.092c0-0.042-0.035-0.049-0.067-0.049-0.040 0-0.074 0.015-0.075 0.060h0.029c0.001-0.026 0.020-0.034 0.044-0.034 0.018 0 0.040 0.004 0.040 0.030 0 0.022-0.028 0.020-0.060 0.026-0.030 0.006-0.060 0.014-0.060 0.055 0 0.035 0.027 0.050 0.059 0.050 0.025 0 0.046-0.009 0.062-0.028 0 0.019 0.010 0.028 0.025 0.028 0.009 0 0.016-0.002 0.021-0.005v-0.023zM41.737 21.186h0.029v-0.079c0-0.045 0.017-0.072 0.064-0.072v-0.031c-0.032-0.001-0.051 0.013-0.065 0.042h-0.001v-0.038h-0.028v0.178zM41.894 20.955h-0.029v0.053h-0.030v0.026h0.030v0.113c0 0.033 0.012 0.039 0.042 0.039h0.022v-0.026h-0.014c-0.018 0-0.022-0.002-0.022-0.016v-0.11h0.035v-0.026h-0.035v-0.053zM41.962 21.186h0.029v-0.111c0-0.013 0.013-0.045 0.047-0.045 0.026 0 0.033 0.017 0.033 0.040v0.117h0.029v-0.111c0-0.028 0.018-0.045 0.046-0.045s0.034 0.018 0.034 0.040v0.117h0.029v-0.13c0-0.037-0.024-0.052-0.059-0.052-0.023 0-0.044 0.011-0.056 0.030-0.007-0.022-0.027-0.030-0.049-0.030-0.025 0-0.044 0.010-0.057 0.030h-0.001v-0.026h-0.028v0.178zM42.378 21.129c-0.005 0.023-0.022 0.035-0.046 0.035-0.039 0-0.057-0.028-0.055-0.058h0.133c0.002-0.043-0.017-0.102-0.080-0.102-0.049 0-0.084 0.039-0.084 0.093 0.002 0.054 0.029 0.094 0.085 0.094 0.040 0 0.068-0.021 0.076-0.061h-0.029zM42.276 21.080c0.002-0.027 0.020-0.050 0.051-0.050 0.029 0 0.050 0.022 0.051 0.050h-0.102zM42.44 21.186h0.029v-0.1c0-0.032 0.017-0.056 0.053-0.056 0.022 0 0.036 0.014 0.036 0.036v0.12h0.029v-0.117c0-0.038-0.014-0.065-0.061-0.065-0.026 0-0.045 0.010-0.058 0.032h-0.001v-0.028h-0.028v0.178zM42.672 20.955h-0.029v0.053h-0.030v0.026h0.030v0.113c0 0.033 0.012 0.039 0.042 0.039h0.022v-0.026h-0.014c-0.018 0-0.022-0.002-0.022-0.016v-0.11h0.035v-0.026h-0.035v-0.053zM42.728 21.13c0.002 0.044 0.035 0.060 0.075 0.060 0.036 0 0.076-0.014 0.076-0.056 0-0.034-0.029-0.044-0.058-0.051-0.027-0.007-0.058-0.010-0.058-0.031 0-0.018 0.020-0.023 0.038-0.023 0.019 0 0.039 0.007 0.041 0.030h0.029c-0.002-0.043-0.034-0.056-0.073-0.056-0.031 0-0.067 0.015-0.067 0.051 0 0.034 0.029 0.044 0.058 0.050s0.058 0.010 0.058 0.033c0 0.022-0.025 0.026-0.043 0.026-0.024 0-0.047-0.008-0.048-0.034h-0.029z"></path>
</svg>
<svg id="icon-about-us-line-vertical" width="0" height="32" viewBox="0 0 0 32" x="192" y="0">
<path fill="none" stroke="#3f5148" stroke-linejoin="miter" stroke-linecap="butt" stroke-miterlimit="4" stroke-width="0.0246" d="M0.025 0v32"></path>
</svg>
<svg id="icon-arrow-down-book-form" width="53" height="32" viewBox="0 0 53 32" x="240" y="0">
<path fill="none" stroke="#fcd043" stroke-linejoin="miter" stroke-linecap="butt" stroke-miterlimit="4" stroke-width="5.3333" d="M51.292 5.167c0 0-7.279 1.753-13.519 7.013s-11.439 14.026-11.439 14.026c0 0-5.2-8.766-11.439-14.026s-13.519-7.013-13.519-7.013"></path>
</svg>
<svg id="icon-arrow-down-hero" width="48" height="32" viewBox="0 0 48 32" x="336" y="0">
<path fill="none" stroke="#fcd043" stroke-linejoin="miter" stroke-linecap="butt" stroke-miterlimit="4" stroke-width="5.3333" d="M45.333 2.667c0 0-6.222 1.778-11.555 7.111s-9.778 14.222-9.778 14.222c0 0-4.444-8.889-9.778-14.222s-11.556-7.111-11.556-7.111"></path>
</svg>
<svg id="icon-arrow-email" width="56" height="32" viewBox="0 0 56 32" x="432" y="0">
<path fill="none" opacity="0.48" stroke-linejoin="miter" stroke-linecap="butt" stroke-miterlimit="4" stroke-width="3.3684" stroke="#000" d="M40.421 1.684c0 0 0.982 4.175 3.93 7.754s7.86 6.561 7.86 6.561c0 0-4.912 2.982-7.86 6.561s-3.93 7.754-3.93 7.754"></path>
<path opacity="0.48" stroke-linejoin="miter" stroke-linecap="butt" stroke-miterlimit="4" stroke-width="0.8421" stroke="#000" fill="#000" d="M0.421 15.579h49.684v0.842h-49.684v-0.842z"></path>
</svg>
<svg id="icon-arrow-side" width="71" height="32" viewBox="0 0 71 32" x="528" y="0">
<path fill="none" stroke-linejoin="miter" stroke-linecap="butt" stroke-miterlimit="4" stroke-width="2.2857" stroke="#000" d="M53.595 0.762c0 0 1.177 4.444 4.706 8.254s9.413 6.984 9.413 6.984-5.883 3.175-9.413 6.984c-3.53 3.81-4.706 8.254-4.706 8.254"></path>
<path stroke-linejoin="miter" stroke-linecap="butt" stroke-miterlimit="4" stroke-width="0.7619" stroke="#000" fill="#000" d="M0.381 16.49v-0.98h65.51v0.98h-65.51z"></path>
</svg>
<svg id="icon-arrow-up-book-form" width="53" height="32" viewBox="0 0 53 32" x="624" y="0">
<path fill="none" stroke="#fcd043" stroke-linejoin="miter" stroke-linecap="butt" stroke-miterlimit="4" stroke-width="5.3333" d="M50.927 28.874c0 0-7.279-1.753-13.519-7.013s-11.439-14.026-11.439-14.026-5.2 8.766-11.439 14.026c-6.239 5.26-13.519 7.013-13.519 7.013"></path>
</svg>
<svg id="icon-button-with-arrow-down" width="32" height="32" viewBox="0 0 32 32" x="0" y="48">
<path fill="none" stroke="#313f38" stroke-linejoin="miter" stroke-linecap="butt" stroke-miterlimit="4" stroke-width="0.3765" d="M18.96 17.038c0 0-0.871 0.227-1.617 0.909s-1.369 1.817-1.369 1.817c0 0-0.622-1.136-1.369-1.817s-1.617-0.909-1.617-0.909"></path>
<path d="M15.908 12.3h0.13v7.14h-0.13v-7.14z"></path>
</svg>
<svg id="icon-button-with-arrow-side" width="32" height="32" viewBox="0 0 32 32" x="48" y="48">
<path fill="none" stroke="#313f38" stroke-linejoin="miter" stroke-linecap="butt" stroke-miterlimit="4" stroke-width="0.3765" d="M17.038 13.040c0 0 0.227 0.871 0.909 1.617s1.817 1.369 1.817 1.369c0 0-1.136 0.622-1.817 1.369s-0.909 1.617-0.909 1.617"></path>
<path d="M12.3 16.092v-0.13h7.14v0.13h-7.14z"></path>
</svg>
<svg id="icon-get-in-touch-curve" width="109" height="32" viewBox="0 0 109 32" x="96" y="48">
<path d="M12.3 16.092v-0.13h7.14v0.13h-7.14z"></path>
</svg>
<svg id="icon-get-in-touch-star" width="32" height="32" viewBox="0 0 32 32" x="240" y="48">
<path fill="#fcd043" d="M16.107 0l1.172 10.593 5.379-9.2-3.238 10.154 8.656-6.217-7.088 7.959 10.437-2.159-9.712 4.388 10.412 2.273-10.657 0.058 8.588 6.312-9.76-4.281 5.278 9.259-7.175-7.881 1.056 10.605-3.349-10.118-3.349 10.118 1.056-10.605-7.175 7.881 5.278-9.259-9.76 4.281 8.588-6.312-10.658-0.058 10.412-2.273-9.712-4.388 10.437 2.159-7.088-7.959 8.656 6.217-3.238-10.154 5.379 9.2 1.172-10.593z"></path>
</svg>
<svg id="icon-label" width="44" height="32" viewBox="0 0 44 32" x="288" y="48">
<path fill="#fffcf6" opacity="0.64" d="M2.212 31.95l-0.494-1.152c-0.219-0.53-0.055-0.933 0.421-1.152 0.494-0.219 0.914-0.055 1.134 0.476l0.347 0.805 1.079-0.476 0.146 0.348-2.633 1.152zM3.328 31.053l-0.293-0.695c-0.165-0.402-0.421-0.494-0.732-0.366s-0.402 0.384-0.238 0.786l0.293 0.695 0.969-0.421z"></path>
<path fill="#fffcf6" opacity="0.64" d="M0.86 28.402l-0.311-1.317c-0.128-0.53 0.091-0.914 0.53-1.024 0.329-0.073 0.658 0 0.823 0.311-0.018-0.347 0.201-0.457 0.475-0.549s0.585-0.146 0.732-0.347l0.091 0.421c-0.091 0.128-0.402 0.146-0.658 0.256s-0.475 0.219-0.402 0.585l0.219 0.914 1.189-0.274 0.091 0.366-2.78 0.658zM1.865 26.957c-0.073-0.347-0.238-0.622-0.64-0.53-0.274 0.073-0.439 0.256-0.366 0.603l0.219 0.933 0.969-0.238-0.183-0.768z"></path>
<path fill="#fffcf6" opacity="0.64" d="M0.11 24.525l-0.11-1.975 0.329-0.018 0.091 1.591 0.914-0.055-0.091-1.481 0.329-0.018 0.073 1.5 0.988-0.055-0.091-1.609 0.329-0.018 0.11 1.993-2.871 0.146z"></path>
<path fill="#fffcf6" opacity="0.64" d="M0.018 20.831l0.073-0.512 2.505-0.585-2.268-1.207 0.073-0.512 2.853 0.366-0.055 0.366-2.377-0.311 2.249 1.207-0.037 0.329-2.487 0.567 2.377 0.311-0.055 0.366-2.853-0.384z"></path>
<path fill="#fffcf6" opacity="0.64" d="M0.86 16.259l0.11-0.366 2.761 0.823-0.11 0.366-2.761-0.823z"></path>
<path fill="#fffcf6" opacity="0.64" d="M4.152 12.894c0.658 0.293 0.841 0.841 0.53 1.481-0.311 0.677-0.805 0.933-1.5 0.603l-1.664-0.768 0.165-0.347 1.664 0.768c0.457 0.219 0.841 0.055 1.042-0.402 0.201-0.439 0.055-0.805-0.402-1.006l-1.664-0.768 0.165-0.347 1.664 0.786z"></path>
<path fill="#fffcf6" opacity="0.64" d="M3.42 10.498l0.311-0.421 2.487 0.695-1.408-2.158 0.311-0.421 2.323 1.701-0.219 0.293-1.92-1.408 1.39 2.14-0.201 0.256-2.451-0.695 1.92 1.408-0.219 0.293-2.323-1.682z"></path>
<path fill="#fffcf6" opacity="0.64" d="M7.973 5.359l1.079-0.805c0.439-0.329 0.878-0.293 1.152 0.073 0.201 0.274 0.256 0.603 0.037 0.878 0.311-0.146 0.512 0 0.695 0.219s0.366 0.475 0.603 0.53l-0.347 0.256c-0.165-0.037-0.293-0.311-0.512-0.512-0.201-0.201-0.402-0.347-0.695-0.128l-0.75 0.567 0.732 0.988-0.311 0.238-1.682-2.304zM9.711 5.707c0.293-0.219 0.475-0.475 0.219-0.805-0.165-0.219-0.421-0.293-0.695-0.091l-0.768 0.567 0.604 0.805 0.64-0.475z"></path>
<path fill="#fffcf6" opacity="0.64" d="M12.308 2.506c0.823-0.402 1.554 0.037 1.902 0.75 0.347 0.695 0.256 1.554-0.567 1.957s-1.554-0.037-1.902-0.75c-0.366-0.695-0.256-1.554 0.567-1.957zM13.478 4.92c0.622-0.311 0.622-0.988 0.366-1.5s-0.786-0.933-1.408-0.622-0.622 0.988-0.366 1.5c0.256 0.512 0.786 0.933 1.408 0.622z"></path>
<path fill="#fffcf6" opacity="0.64" d="M16.331 1.007c0.878-0.238 1.518 0.347 1.719 1.097s-0.055 1.573-0.951 1.81c-0.896 0.238-1.518-0.347-1.719-1.097-0.183-0.768 0.073-1.591 0.951-1.81zM17.026 3.604c0.677-0.183 0.805-0.841 0.658-1.39-0.146-0.567-0.585-1.061-1.262-0.896-0.677 0.183-0.805 0.841-0.658 1.39 0.146 0.567 0.585 1.061 1.262 0.896z"></path>
<path fill="#fffcf6" opacity="0.64" d="M19.404 0.44l0.53-0.037 1.024 2.359 0.786-2.451 0.53-0.037 0.146 2.871-0.366 0.018-0.128-2.396-0.768 2.432-0.329 0.018-1.024-2.341 0.128 2.396-0.366 0.018-0.165-2.853z"></path>
<path fill="#fffcf6" opacity="0.64" d="M25.658 1.464c0.018-0.421-0.238-0.622-0.622-0.677-0.311-0.037-0.658 0.018-0.713 0.402-0.055 0.347 0.402 0.475 0.841 0.64s0.878 0.384 0.786 0.951c-0.091 0.603-0.713 0.768-1.225 0.695-0.64-0.091-1.134-0.475-1.042-1.17l0.366 0.055c-0.073 0.475 0.311 0.75 0.732 0.805 0.347 0.055 0.732 0 0.786-0.421 0.055-0.384-0.384-0.53-0.823-0.695s-0.878-0.366-0.805-0.878c0.073-0.585 0.64-0.768 1.152-0.695 0.585 0.073 0.988 0.421 0.914 1.042l-0.347-0.055z"></path>
<path fill="#fffcf6" opacity="0.64" d="M27.121 3.439l0.421 0.128-0.128 0.421-0.421-0.128 0.128-0.421z"></path>
<path fill="#fffcf6" opacity="0.64" d="M31.858 2.634l0.914 0.512c0.219 0.128 0.512 0.293 0.603 0.457 0.11 0.183 0.147 0.439 0 0.695-0.146 0.274-0.402 0.384-0.695 0.347 0.275 0.238 0.311 0.567 0.128 0.878-0.201 0.366-0.677 0.567-1.17 0.293l-1.207-0.677 1.427-2.505zM30.943 5.030l0.841 0.475c0.293 0.165 0.567 0.091 0.732-0.183 0.183-0.329-0.037-0.567-0.311-0.732l-0.768-0.421-0.494 0.859zM31.583 3.896l0.658 0.384c0.384 0.219 0.604 0.165 0.75-0.091 0.201-0.347-0.018-0.53-0.311-0.695l-0.658-0.384-0.439 0.786z"></path>
<path fill="#fffcf6" opacity="0.64" d="M35.826 5.213l0.329 0.274-0.969 2.926-0.329-0.274 0.311-0.859-0.933-0.768-0.804 0.457-0.311-0.256 2.706-1.5zM34.527 6.329l0.75 0.622 0.476-1.335-1.225 0.713z"></path>
<path fill="#fffcf6" opacity="0.64" d="M38.056 7.243l0.256 0.311-0.804 2.652 1.774-1.5 0.238 0.274-2.194 1.865-0.275-0.311 0.786-2.633-1.756 1.481-0.238-0.274 2.213-1.865z"></path>
<path fill="#fffcf6" opacity="0.64" d="M40.58 10.498l0.183 0.329-1.244 0.713 1.975 0.549 0.238 0.421-1.609-0.475-0.859 1.938-0.238-0.421 0.75-1.628-0.622-0.201-0.878 0.494-0.183-0.329 2.487-1.39z"></path>
<path fill="#fffcf6" opacity="0.64" d="M43.086 15.966l0.091 0.366-1.207 0.293 0.366 1.463 1.207-0.293 0.091 0.366-2.798 0.677-0.092-0.366 1.28-0.311-0.366-1.463-1.28 0.311-0.091-0.366 2.798-0.677z"></path>
<path fill="#fffcf6" opacity="0.64" d="M44.037 21.233c0.037 0.914-0.658 1.408-1.445 1.445s-1.518-0.384-1.573-1.298 0.658-1.408 1.445-1.445c0.786-0.037 1.518 0.384 1.573 1.298zM41.348 21.361c0.037 0.695 0.658 0.969 1.225 0.933s1.17-0.347 1.134-1.042c-0.037-0.695-0.658-0.969-1.225-0.933s-1.17 0.347-1.134 1.042z"></path>
<path fill="#fffcf6" opacity="0.64" d="M43.525 24.872l0.128-0.951 0.311 0.037-0.293 2.286-0.311-0.037 0.128-0.951-2.524-0.329 0.055-0.384 2.505 0.329z"></path>
<path fill="#fffcf6" opacity="0.64" d="M43.342 27.689l-0.567 1.902-0.311-0.091 0.457-1.536-0.878-0.256-0.42 1.426-0.311-0.091 0.42-1.426-0.951-0.274-0.457 1.554-0.311-0.091 0.567-1.92 2.761 0.805z"></path>
<path fill="#fffcf6" opacity="0.64" d="M42.171 31.108l-0.165 0.348-2.304-1.097-0.658 1.372-0.293-0.146 0.823-1.719 2.597 1.244z"></path>
<path fill="#fcd043" d="M21.46 15.745c-0.053-0.41 0.267-0.772 0.68-0.772 0.386 0 0.683 0.339 0.634 0.721l-0.66 5.151-0.654-5.099z"></path>
<path fill="#fcd043" d="M27.212 20.19c0.41-0.053 0.772 0.267 0.772 0.68 0 0.386-0.339 0.683-0.721 0.634l-5.151-0.66 5.099-0.654z"></path>
<path fill="#fcd043" d="M25.272 16.793c0.253-0.327 0.735-0.358 1.027-0.066 0.273 0.273 0.244 0.723-0.061 0.958l-4.109 3.175 3.143-4.068z"></path>
<path fill="#fcd043" d="M26.199 24.006c0.327 0.253 0.358 0.735 0.066 1.027-0.273 0.273-0.723 0.244-0.958-0.061l-3.175-4.109 4.068 3.143z"></path>
<path fill="#fcd043" d="M22.767 25.943c0.053 0.41-0.267 0.772-0.68 0.772-0.386 0-0.683-0.339-0.634-0.721l0.66-5.151 0.654 5.099z"></path>
<path fill="#fcd043" d="M17.014 21.498c-0.41 0.053-0.772-0.267-0.772-0.68 0-0.386 0.339-0.683 0.721-0.634l5.151 0.66-5.099 0.654z"></path>
<path fill="#fcd043" d="M18.986 24.93c-0.253 0.327-0.735 0.358-1.027 0.066-0.273-0.273-0.244-0.723 0.061-0.958l4.109-3.175-3.143 4.068z"></path>
<path fill="#fcd043" d="M18.062 17.718c-0.327-0.253-0.358-0.735-0.066-1.027 0.273-0.273 0.723-0.244 0.958 0.061l3.175 4.109-4.068-3.143z"></path>
</svg>
<svg id="icon-line-curve" width="109" height="32" viewBox="0 0 109 32" x="384" y="48">
<path fill="#fcd043" d="M18.062 17.718c-0.327-0.253-0.358-0.735-0.066-1.027 0.273-0.273 0.723-0.244 0.958 0.061l3.175 4.109-4.068-3.143z"></path>
</svg>
<svg id="icon-premium" width="32" height="32" viewBox="0 0 32 32" x="528" y="48">
<path fill="#1b3b36" d="M8.989 1.589l0.839-0.36c0.386-0.16 0.679-0.040 0.839 0.307 0.16 0.36 0.040 0.667-0.346 0.828l-0.586 0.254 0.346 0.788-0.253 0.107-0.839-1.922zM9.641 2.39l0.506-0.214c0.293-0.12 0.359-0.307 0.266-0.534s-0.28-0.294-0.572-0.174l-0.506 0.214 0.306 0.708z"></path>
<path fill="#000" opacity="0.2" d="M8.989 1.589l0.839-0.36c0.386-0.16 0.679-0.040 0.839 0.307 0.16 0.36 0.040 0.667-0.346 0.828l-0.586 0.254 0.346 0.788-0.253 0.107-0.839-1.922zM9.641 2.39l0.506-0.214c0.293-0.12 0.359-0.307 0.266-0.534s-0.28-0.294-0.572-0.174l-0.506 0.214 0.306 0.708z"></path>
<path fill="#1b3b36" d="M12.836 0.28l0.972-0.147c0.386-0.053 0.666 0.12 0.705 0.454 0.040 0.254-0.040 0.467-0.28 0.574 0.253 0.013 0.319 0.174 0.373 0.374s0.067 0.427 0.213 0.547l-0.306 0.040c-0.093-0.067-0.080-0.307-0.146-0.494-0.053-0.2-0.133-0.36-0.399-0.32l-0.666 0.107 0.133 0.881-0.28 0.040-0.319-2.056zM13.821 1.108c0.253-0.040 0.466-0.133 0.426-0.441-0.027-0.2-0.16-0.334-0.426-0.294l-0.679 0.107 0.107 0.721 0.572-0.093z"></path>
<path fill="#000" opacity="0.2" d="M12.836 0.28l0.972-0.147c0.386-0.053 0.666 0.12 0.705 0.454 0.040 0.254-0.040 0.467-0.28 0.574 0.253 0.013 0.319 0.174 0.373 0.374s0.067 0.427 0.213 0.547l-0.306 0.040c-0.093-0.067-0.080-0.307-0.146-0.494-0.053-0.2-0.133-0.36-0.399-0.32l-0.666 0.107 0.133 0.881-0.28 0.040-0.319-2.056zM13.821 1.108c0.253-0.040 0.466-0.133 0.426-0.441-0.027-0.2-0.16-0.334-0.426-0.294l-0.679 0.107 0.107 0.721 0.572-0.093z"></path>
<path fill="#1b3b36" d="M16.989 0l1.438 0.147-0.027 0.24-1.158-0.12-0.067 0.667 1.078 0.107-0.027 0.24-1.078-0.107-0.080 0.721 1.172 0.107-0.027 0.24-1.438-0.16 0.213-2.083z"></path>
<path fill="#000" opacity="0.2" d="M16.989 0l1.438 0.147-0.027 0.24-1.158-0.12-0.067 0.667 1.078 0.107-0.027 0.24-1.078-0.107-0.080 0.721 1.172 0.107-0.027 0.24-1.438-0.16 0.213-2.083z"></path>
<path fill="#1b3b36" d="M20.916 0.721l0.359 0.147-0.027 1.882 1.264-1.388 0.359 0.147-0.772 1.949-0.266-0.12 0.639-1.629-1.251 1.388-0.226-0.093 0.027-1.869-0.639 1.629-0.24-0.093 0.772-1.949z"></path>
<path fill="#000" opacity="0.2" d="M20.916 0.721l0.359 0.147-0.027 1.882 1.264-1.388 0.359 0.147-0.772 1.949-0.266-0.12 0.639-1.629-1.251 1.388-0.226-0.093 0.027-1.869-0.639 1.629-0.24-0.093 0.772-1.949z"></path>
<path fill="#1b3b36" d="M25.095 2.83l0.226 0.16-1.211 1.709-0.226-0.16 1.211-1.709z"></path>
<path fill="#000" opacity="0.2" d="M25.095 2.83l0.226 0.16-1.211 1.709-0.226-0.16 1.211-1.709z"></path>
<path fill="#1b3b36" d="M27.438 6.781c-0.386 0.36-0.799 0.32-1.145-0.067-0.359-0.401-0.386-0.801 0.027-1.175l0.985-0.894 0.186 0.2-0.998 0.894c-0.28 0.254-0.28 0.547-0.040 0.814s0.519 0.267 0.785 0.027l0.985-0.894 0.186 0.2-0.972 0.894z"></path>
<path fill="#000" opacity="0.2" d="M27.438 6.781c-0.386 0.36-0.799 0.32-1.145-0.067-0.359-0.401-0.386-0.801 0.027-1.175l0.985-0.894 0.186 0.2-0.998 0.894c-0.28 0.254-0.28 0.547-0.040 0.814s0.519 0.267 0.785 0.027l0.985-0.894 0.186 0.2-0.972 0.894z"></path>
<path fill="#1b3b36" d="M29.941 8.090l0.173 0.347-1.291 1.362 1.864-0.174 0.173 0.347-1.877 0.921-0.12-0.24 1.571-0.761-1.85 0.174-0.107-0.214 1.278-1.348-1.571 0.761-0.12-0.24 1.877-0.934z"></path>
<path fill="#000" opacity="0.2" d="M29.941 8.090l0.173 0.347-1.291 1.362 1.864-0.174 0.173 0.347-1.877 0.921-0.12-0.24 1.571-0.761-1.85 0.174-0.107-0.214 1.278-1.348-1.571 0.761-0.12-0.24 1.877-0.934z"></path>
<path fill="#1b3b36" d="M32.004 15.393l-0.013 0.988c0 0.387-0.226 0.627-0.559 0.627-0.253 0-0.453-0.12-0.519-0.374-0.053 0.24-0.226 0.294-0.439 0.307-0.2 0.013-0.439 0-0.572 0.12v-0.307c0.080-0.080 0.306-0.027 0.519-0.067 0.2-0.027 0.373-0.067 0.386-0.347l0.013-0.681-0.892-0.013v-0.28l2.076 0.027zM31.033 16.234c0 0.267 0.053 0.481 0.359 0.494 0.2 0 0.359-0.107 0.359-0.374l0.013-0.694-0.732-0.013v0.587z"></path>
<path fill="#000" opacity="0.2" d="M32.004 15.393l-0.013 0.988c0 0.387-0.226 0.627-0.559 0.627-0.253 0-0.453-0.12-0.519-0.374-0.053 0.24-0.226 0.294-0.439 0.307-0.2 0.013-0.439 0-0.572 0.12v-0.307c0.080-0.080 0.306-0.027 0.519-0.067 0.2-0.027 0.373-0.067 0.386-0.347l0.013-0.681-0.892-0.013v-0.28l2.076 0.027zM31.033 16.234c0 0.267 0.053 0.481 0.359 0.494 0.2 0 0.359-0.107 0.359-0.374l0.013-0.694-0.732-0.013v0.587z"></path>
<path fill="#1b3b36" d="M31.445 20.426c-0.186 0.641-0.785 0.828-1.331 0.668s-0.958-0.628-0.785-1.268c0.186-0.641 0.785-0.828 1.331-0.667s0.958 0.628 0.785 1.268zM29.555 19.892c-0.133 0.494 0.226 0.814 0.626 0.934s0.892 0.027 1.025-0.467c0.133-0.494-0.226-0.814-0.626-0.935-0.399-0.107-0.878-0.027-1.025 0.467z"></path>
<path fill="#000" opacity="0.2" d="M31.445 20.426c-0.186 0.641-0.785 0.828-1.331 0.668s-0.958-0.628-0.785-1.268c0.186-0.641 0.785-0.828 1.331-0.667s0.958 0.628 0.785 1.268zM29.555 19.892c-0.133 0.494 0.226 0.814 0.626 0.934s0.892 0.027 1.025-0.467c0.133-0.494-0.226-0.814-0.626-0.935-0.399-0.107-0.878-0.027-1.025 0.467z"></path>
<path fill="#1b3b36" d="M29.648 24.497c-0.346 0.561-0.972 0.574-1.464 0.28-0.479-0.294-0.759-0.868-0.399-1.428 0.346-0.561 0.972-0.574 1.464-0.28 0.479 0.294 0.759 0.854 0.399 1.429zM27.984 23.469c-0.266 0.441-0.013 0.854 0.346 1.068 0.359 0.227 0.839 0.267 1.118-0.16 0.266-0.441 0.013-0.854-0.346-1.068-0.359-0.227-0.852-0.28-1.118 0.16z"></path>
<path fill="#000" opacity="0.2" d="M29.648 24.497c-0.346 0.561-0.972 0.574-1.464 0.28-0.479-0.294-0.759-0.868-0.399-1.428 0.346-0.561 0.972-0.574 1.464-0.28 0.479 0.294 0.759 0.854 0.399 1.429zM27.984 23.469c-0.266 0.441-0.013 0.854 0.346 1.068 0.359 0.227 0.839 0.267 1.118-0.16 0.266-0.441 0.013-0.854-0.346-1.068-0.359-0.227-0.852-0.28-1.118 0.16z"></path>
<path fill="#1b3b36" d="M27.438 27.301l-0.279 0.254-1.664-0.868 0.679 1.762-0.28 0.254-1.398-1.562 0.2-0.174 1.158 1.295-0.679-1.735 0.173-0.16 1.651 0.868-1.158-1.295 0.2-0.174 1.398 1.535z"></path>
<path fill="#000" opacity="0.2" d="M27.438 27.301l-0.279 0.254-1.664-0.868 0.679 1.762-0.28 0.254-1.398-1.562 0.2-0.174 1.158 1.295-0.679-1.735 0.173-0.16 1.651 0.868-1.158-1.295 0.2-0.174 1.398 1.535z"></path>
<path fill="#1b3b36" d="M22.287 30.131c0.16 0.254 0.399 0.28 0.652 0.16 0.213-0.107 0.386-0.28 0.266-0.534-0.106-0.227-0.426-0.12-0.772-0.040-0.333 0.080-0.679 0.12-0.865-0.254-0.2-0.401 0.12-0.747 0.466-0.921 0.426-0.2 0.878-0.173 1.105 0.28l-0.24 0.12c-0.16-0.32-0.479-0.32-0.772-0.187-0.226 0.107-0.439 0.307-0.306 0.574 0.12 0.254 0.453 0.16 0.785 0.080s0.679-0.147 0.839 0.2c0.186 0.387-0.067 0.721-0.413 0.881-0.386 0.187-0.759 0.147-0.985-0.254l0.24-0.107z"></path>
<path fill="#000" opacity="0.2" d="M22.287 30.131c0.16 0.254 0.399 0.28 0.652 0.16 0.213-0.107 0.386-0.28 0.266-0.534-0.106-0.227-0.426-0.12-0.772-0.040-0.333 0.080-0.679 0.12-0.865-0.254-0.2-0.401 0.12-0.747 0.466-0.921 0.426-0.2 0.878-0.173 1.105 0.28l-0.24 0.12c-0.16-0.32-0.479-0.32-0.772-0.187-0.226 0.107-0.439 0.307-0.306 0.574 0.12 0.254 0.453 0.16 0.785 0.080s0.679-0.147 0.839 0.2c0.186 0.387-0.067 0.721-0.413 0.881-0.386 0.187-0.759 0.147-0.985-0.254l0.24-0.107z"></path>
<path fill="#1b3b36" d="M19.491 29.877l-0.32 0.080-0.080-0.32 0.32-0.080 0.080 0.32z"></path>
<path fill="#000" opacity="0.2" d="M19.491 29.877l-0.32 0.080-0.080-0.32 0.32-0.080 0.080 0.32z"></path>
<path fill="#1b3b36" d="M14.167 32l-0.745-0.12c-0.186-0.027-0.426-0.067-0.532-0.16-0.12-0.107-0.2-0.267-0.173-0.467 0.040-0.227 0.173-0.36 0.386-0.414-0.24-0.093-0.359-0.307-0.306-0.561 0.053-0.307 0.319-0.561 0.719-0.494l0.998 0.16-0.346 2.056zM14.047 31.066l-0.546-0.093c-0.306-0.053-0.453 0.040-0.492 0.254-0.053 0.28 0.146 0.361 0.386 0.401l0.546 0.093 0.107-0.654zM14.193 30.118l-0.692-0.107c-0.24-0.040-0.413 0.080-0.453 0.307-0.040 0.267 0.16 0.374 0.386 0.414l0.626 0.107 0.133-0.721z"></path>
<path fill="#000" opacity="0.2" d="M14.167 32l-0.745-0.12c-0.186-0.027-0.426-0.067-0.532-0.16-0.12-0.107-0.2-0.267-0.173-0.467 0.040-0.227 0.173-0.36 0.386-0.414-0.24-0.093-0.359-0.307-0.306-0.561 0.053-0.307 0.319-0.561 0.719-0.494l0.998 0.16-0.346 2.056zM14.047 31.066l-0.546-0.093c-0.306-0.053-0.453 0.040-0.492 0.254-0.053 0.28 0.146 0.361 0.386 0.401l0.546 0.093 0.107-0.654zM14.193 30.118l-0.692-0.107c-0.24-0.040-0.413 0.080-0.453 0.307-0.040 0.267 0.16 0.374 0.386 0.414l0.626 0.107 0.133-0.721z"></path>
<path fill="#1b3b36" d="M9.601 30.745l-0.28-0.12 0.107-2.243 0.28 0.12-0.053 0.668 0.812 0.36 0.466-0.481 0.266 0.12-1.597 1.575zM10.293 29.704l-0.652-0.294-0.080 1.041 0.732-0.748z"></path>
<path fill="#000" opacity="0.2" d="M9.601 30.745l-0.28-0.12 0.107-2.243 0.28 0.12-0.053 0.668 0.812 0.36 0.466-0.481 0.266 0.12-1.597 1.575zM10.293 29.704l-0.652-0.294-0.080 1.041 0.732-0.748z"></path>
<path fill="#1b3b36" d="M6.553 29.023l-0.226-0.187 0.213-2.016-1.065 1.322-0.2-0.16 1.318-1.629 0.24 0.187-0.213 2.003 1.052-1.308 0.2 0.16-1.318 1.629z"></path>
<path fill="#000" opacity="0.2" d="M6.553 29.023l-0.226-0.187 0.213-2.016-1.065 1.322-0.2-0.16 1.318-1.629 0.24 0.187-0.213 2.003 1.052-1.308 0.2 0.16-1.318 1.629z"></path>
<path fill="#1b3b36" d="M3.465 26.033l-0.16-0.227 0.839-0.614-1.464-0.254-0.213-0.294 1.198 0.227 0.479-1.482 0.2 0.28-0.413 1.241 0.466 0.093 0.599-0.427 0.16 0.227-1.691 1.228z"></path>
<path fill="#000" opacity="0.2" d="M3.465 26.033l-0.16-0.227 0.839-0.614-1.464-0.254-0.213-0.294 1.198 0.227 0.479-1.482 0.2 0.28-0.413 1.241 0.466 0.093 0.599-0.427 0.16 0.227-1.691 1.228z"></path>
<path fill="#1b3b36" d="M0.417 19.785l-0.053-0.28 0.879-0.16-0.2-1.081-0.879 0.16-0.053-0.28 2.050-0.387 0.053 0.28-0.945 0.173 0.2 1.081 0.945-0.174 0.053 0.28-2.050 0.387z"></path>
<path fill="#000" opacity="0.2" d="M0.417 19.785l-0.053-0.28 0.879-0.16-0.2-1.081-0.879 0.16-0.053-0.28 2.050-0.387 0.053 0.28-0.945 0.173 0.2 1.081 0.945-0.174 0.053 0.28-2.050 0.387z"></path>
<path fill="#1b3b36" d="M0.004 14.592c0.053-0.668 0.612-0.948 1.185-0.908s1.065 0.427 0.998 1.095c-0.053 0.668-0.612 0.948-1.185 0.908-0.559-0.040-1.052-0.427-0.998-1.095zM1.961 14.765c0.040-0.507-0.373-0.761-0.799-0.801s-0.879 0.133-0.918 0.641c-0.040 0.507 0.373 0.761 0.799 0.801 0.413 0.053 0.865-0.12 0.918-0.641z"></path>
<path fill="#000" opacity="0.2" d="M0.004 14.592c0.053-0.668 0.612-0.948 1.185-0.908s1.065 0.427 0.998 1.095c-0.053 0.668-0.612 0.948-1.185 0.908-0.559-0.040-1.052-0.427-0.998-1.095zM1.961 14.765c0.040-0.507-0.373-0.761-0.799-0.801s-0.879 0.133-0.918 0.641c-0.040 0.507 0.373 0.761 0.799 0.801 0.413 0.053 0.865-0.12 0.918-0.641z"></path>
<path fill="#1b3b36" d="M1.122 10.774l-0.24 0.654-0.226-0.080 0.572-1.575 0.226 0.080-0.24 0.654 1.744 0.641-0.093 0.267-1.744-0.641z"></path>
<path fill="#000" opacity="0.2" d="M1.122 10.774l-0.24 0.654-0.226-0.080 0.572-1.575 0.226 0.080-0.24 0.654 1.744 0.641-0.093 0.267-1.744-0.641z"></path>
<path fill="#1b3b36" d="M2.333 7.663l0.799-1.202 0.2 0.133-0.652 0.975 0.546 0.374 0.599-0.908 0.2 0.133-0.599 0.908 0.599 0.4 0.652-0.975 0.2 0.133-0.812 1.215-1.73-1.188z"></path>
<path fill="#000" opacity="0.2" d="M2.333 7.663l0.799-1.202 0.2 0.133-0.652 0.975 0.546 0.374 0.599-0.908 0.2 0.133-0.599 0.908 0.599 0.4 0.652-0.975 0.2 0.133-0.812 1.215-1.73-1.188z"></path>
<path fill="#1b3b36" d="M4.77 4.579l0.2-0.187 1.251 1.375 0.812-0.748 0.16 0.174-1.025 0.934-1.398-1.549z"></path>
<path fill="#000" opacity="0.2" d="M4.77 4.579l0.2-0.187 1.251 1.375 0.812-0.748 0.16 0.174-1.025 0.934-1.398-1.549z"></path>
</svg>
<svg id="icon-star-facilities" width="32" height="32" viewBox="0 0 32 32" x="576" y="48">
<path fill="#fcd043" d="M15.714 4.889l1.179 9.933 9.933 1.179-9.933 1.179-1.178 9.933-1.179-9.933-9.933-1.178 9.933-1.179 1.179-9.933z"></path>
<path fill="#fcd043" d="M7.857 8.143l7.857 6.19 7.857-6.19-6.19 7.857 6.19 7.857-7.857-6.19-7.857 6.19 6.19-7.857-6.19-7.857z"></path>
</svg>
<svg id="icon-star-quality" width="32" height="32" viewBox="0 0 32 32" x="624" y="48">
<path fill="#fcd043" d="M4.583 14.687c-0.883-0.122-1.461-0.993-1.232-1.854 0.214-0.804 1.084-1.236 1.854-0.919l10.51 4.317-11.133-1.543z"></path>
<path fill="#fcd043" d="M17.181 5.128c0.119-0.902 1.002-1.491 1.879-1.254 0.819 0.221 1.26 1.113 0.939 1.898l-4.276 10.436 1.458-11.080z"></path>
<path fill="#fcd043" d="M8.963 7.266c-0.547-0.719-0.346-1.75 0.428-2.195 0.722-0.416 1.651-0.097 1.978 0.68l4.395 10.449-6.8-8.934z"></path>
<path fill="#fcd043" d="M24.658 9.394c0.714-0.544 1.748-0.331 2.203 0.455 0.424 0.733 0.114 1.668-0.66 1.989l-10.438 4.339 8.895-6.784z"></path>
<path fill="#fcd043" d="M26.833 17.745c0.883 0.122 1.461 0.993 1.232 1.854-0.214 0.804-1.084 1.236-1.854 0.919l-10.51-4.317 11.133 1.543z"></path>
<path fill="#fcd043" d="M14.235 27.303c-0.119 0.902-1.002 1.491-1.88 1.254-0.819-0.221-1.26-1.113-0.939-1.898l4.276-10.436-1.458 11.080z"></path>
<path fill="#fcd043" d="M22.545 25.117c0.547 0.719 0.346 1.75-0.428 2.195-0.722 0.416-1.651 0.097-1.978-0.68l-4.395-10.449 6.801 8.934z"></path>
<path fill="#fcd043" d="M6.85 22.985c-0.714 0.544-1.748 0.331-2.203-0.455-0.424-0.733-0.114-1.668 0.66-1.989l10.438-4.339-8.895 6.784z"></path>
</svg>
<svg id="icon-star-since" width="32" height="32" viewBox="0 0 32 32" x="672" y="48">
<path fill="#fcd043" d="M16 0l1.236 12.196 8.168-9.14-6.169 10.593 11.981-2.593-11.217 4.944 11.217 4.944-11.981-2.593 6.168 10.593-8.169-9.14-1.236 12.196-1.236-12.196-8.168 9.14 6.168-10.593-11.981 2.593 11.217-4.944-11.217-4.944 11.981 2.593-6.168-10.593 8.168 9.14 1.236-12.196z"></path>
</svg>
<svg id="icon-text-quality" width="31" height="32" viewBox="0 0 31 32" x="720" y="48">
<path fill="#fffcf6" opacity="0.64" d="M14.015 30.837l-0.681-0.272c-0.31-0.129-0.409-0.363-0.303-0.651 0.114-0.295 0.356-0.401 0.666-0.272l0.477 0.189 0.25-0.643 0.204 0.083-0.613 1.567zM14.106 30.005l-0.409-0.166c-0.235-0.098-0.378-0.030-0.454 0.151s-0.008 0.325 0.227 0.424l0.409 0.166 0.227-0.575z"></path>
<path fill="#fffcf6" opacity="0.64" d="M11.987 29.929l-0.674-0.416c-0.272-0.166-0.341-0.416-0.204-0.643 0.106-0.166 0.272-0.273 0.469-0.212-0.151-0.136-0.106-0.272-0.030-0.424s0.182-0.303 0.159-0.447l0.212 0.136c0.015 0.091-0.106 0.227-0.166 0.378s-0.106 0.288 0.076 0.409l0.469 0.288 0.378-0.605 0.189 0.113-0.878 1.423zM11.806 28.915c-0.174-0.113-0.356-0.159-0.484 0.046-0.083 0.144-0.076 0.288 0.098 0.401l0.477 0.295 0.303-0.499-0.394-0.242z"></path>
<path fill="#fffcf6" opacity="0.64" d="M10.073 28.635l-0.863-0.772 0.129-0.144 0.696 0.62 0.356-0.401-0.651-0.575 0.129-0.144 0.651 0.59 0.386-0.431-0.704-0.628 0.129-0.144 0.87 0.779-1.128 1.249z"></path>
<path fill="#fffcf6" opacity="0.64" d="M8.506 27.144l-0.182-0.242 0.795-1.279-1.438 0.439-0.182-0.242 1.332-1.029 0.129 0.174-1.112 0.855 1.43-0.431 0.121 0.151-0.795 1.264 1.112-0.855 0.129 0.174-1.339 1.022z"></path>
<path fill="#fffcf6" opacity="0.64" d="M6.962 24.904l-0.106-0.197 1.483-0.802 0.106 0.197-1.483 0.802z"></path>
<path fill="#fffcf6" opacity="0.64" d="M6.932 22.15c0.394-0.151 0.696 0 0.832 0.393 0.151 0.409 0.053 0.719-0.371 0.87l-1.007 0.371-0.076-0.212 1.007-0.371c0.28-0.098 0.371-0.325 0.265-0.598-0.098-0.265-0.31-0.356-0.583-0.25l-1.007 0.371-0.076-0.212 1.014-0.363z"></path>
<path fill="#fffcf6" opacity="0.64" d="M5.638 21.461l-0.045-0.303 1.317-0.742-1.476-0.31-0.045-0.303 1.665-0.257 0.030 0.212-1.377 0.212 1.461 0.31 0.023 0.189-1.302 0.727 1.377-0.212 0.030 0.212-1.657 0.265z"></path>
<path fill="#fffcf6" opacity="0.64" d="M5.396 17.45l0.114-0.779c0.045-0.318 0.242-0.484 0.507-0.447 0.197 0.030 0.356 0.144 0.378 0.348 0.068-0.189 0.212-0.212 0.378-0.197s0.348 0.045 0.469-0.030l-0.038 0.25c-0.083 0.053-0.25-0.008-0.424 0-0.167 0-0.31 0.023-0.341 0.235l-0.076 0.545 0.711 0.106-0.030 0.227-1.65-0.257zM6.259 16.875c0.030-0.212 0-0.394-0.242-0.424-0.159-0.023-0.295 0.053-0.325 0.25l-0.083 0.552 0.583 0.083 0.068-0.462z"></path>
<path fill="#fffcf6" opacity="0.64" d="M6.009 14.476c0.174-0.507 0.658-0.628 1.097-0.477 0.431 0.144 0.749 0.537 0.575 1.044s-0.658 0.628-1.097 0.477c-0.439-0.136-0.749-0.537-0.575-1.044zM7.492 14.99c0.129-0.386-0.151-0.666-0.469-0.772s-0.711-0.061-0.84 0.325c-0.129 0.386 0.151 0.666 0.469 0.772s0.711 0.061 0.84-0.325z"></path>
<path fill="#fffcf6" opacity="0.64" d="M7.053 12.19c0.265-0.462 0.772-0.484 1.165-0.257s0.628 0.674 0.356 1.143c-0.272 0.469-0.772 0.484-1.165 0.257-0.394-0.242-0.628-0.689-0.356-1.143zM8.415 12.977c0.204-0.356-0.015-0.681-0.303-0.848-0.295-0.174-0.681-0.197-0.893 0.151-0.204 0.356 0.015 0.681 0.303 0.848 0.295 0.174 0.681 0.197 0.893-0.151z"></path>
<path fill="#fffcf6" opacity="0.64" d="M8.090 10.684l0.204-0.235 1.4 0.552-0.689-1.339 0.204-0.235 1.249 1.128-0.144 0.159-1.044-0.938 0.689 1.324-0.129 0.144-1.392-0.545 1.044 0.938-0.144 0.159-1.249-1.112z"></path>
<path fill="#fffcf6" opacity="0.64" d="M11.102 8.52c-0.166-0.182-0.356-0.159-0.537-0.023-0.144 0.114-0.265 0.28-0.129 0.462 0.121 0.166 0.363 0.030 0.613-0.083s0.522-0.204 0.719 0.068c0.212 0.288 0.023 0.613-0.219 0.795-0.303 0.227-0.666 0.272-0.916-0.053l0.174-0.129c0.166 0.227 0.439 0.182 0.636 0.030 0.166-0.121 0.303-0.303 0.151-0.499-0.136-0.182-0.378-0.061-0.628 0.053s-0.515 0.212-0.696-0.030c-0.212-0.272-0.053-0.583 0.189-0.764 0.272-0.212 0.583-0.235 0.81 0.053l-0.166 0.121z"></path>
<path fill="#fffcf6" opacity="0.64" d="M12.524 8.732l0.227-0.121 0.121 0.227-0.227 0.121-0.121-0.227z"></path>
<path fill="#fffcf6" opacity="0.64" d="M14.152 6.439l0.59-0.167c0.144-0.038 0.333-0.091 0.439-0.061 0.121 0.030 0.242 0.121 0.288 0.288 0.053 0.174-0.008 0.325-0.144 0.431 0.212-0.015 0.363 0.106 0.416 0.31 0.068 0.235-0.045 0.515-0.363 0.605l-0.78 0.219-0.447-1.627zM14.765 7.808l0.545-0.151c0.189-0.053 0.272-0.197 0.227-0.378-0.061-0.212-0.25-0.219-0.431-0.174l-0.492 0.144 0.151 0.56zM14.56 7.074l0.431-0.114c0.25-0.068 0.318-0.182 0.272-0.348-0.061-0.227-0.227-0.212-0.416-0.159l-0.431 0.114 0.144 0.507z"></path>
<path fill="#fffcf6" opacity="0.64" d="M16.861 5.864l0.25-0.023 0.81 1.612-0.25 0.023-0.227-0.484-0.704 0.068-0.144 0.522-0.235 0.023 0.499-1.741zM16.785 6.863l0.568-0.053-0.356-0.749-0.212 0.802z"></path>
<path fill="#fffcf6" opacity="0.64" d="M18.624 5.78l0.235 0.023 0.764 1.43 0.113-1.355 0.212 0.015-0.136 1.68-0.242-0.015-0.764-1.415-0.114 1.34-0.212-0.015 0.144-1.688z"></path>
<path fill="#fffcf6" opacity="0.64" d="M21.016 6.083l0.212 0.061-0.219 0.81 1.044-0.59 0.272 0.076-0.863 0.469 0.447 1.158-0.273-0.076-0.363-0.984-0.341 0.174-0.159 0.568-0.212-0.061 0.454-1.604z"></path>
<path fill="#fffcf6" opacity="0.64" d="M24.316 7.309l0.189 0.114-0.378 0.621 0.757 0.454 0.378-0.621 0.189 0.114-0.878 1.438-0.189-0.114 0.401-0.658-0.757-0.454-0.401 0.658-0.189-0.114 0.878-1.438z"></path>
<path fill="#fffcf6" opacity="0.64" d="M26.888 9.095c0.393 0.363 0.31 0.855 0 1.196s-0.787 0.469-1.188 0.114c-0.401-0.356-0.31-0.855 0-1.196s0.787-0.469 1.188-0.114zM25.829 10.26c0.303 0.272 0.674 0.129 0.893-0.121s0.341-0.628 0.038-0.901c-0.303-0.272-0.674-0.129-0.893 0.121s-0.341 0.628-0.038 0.901z"></path>
<path fill="#fffcf6" opacity="0.64" d="M28.182 10.813l-0.34-0.447 0.144-0.114 0.825 1.067-0.144 0.114-0.341-0.447-1.181 0.908-0.136-0.182 1.173-0.901z"></path>
<path fill="#fffcf6" opacity="0.64" d="M29.272 12.054l0.552 1.022-0.166 0.091-0.447-0.825-0.469 0.257 0.416 0.764-0.167 0.091-0.416-0.764-0.507 0.28 0.454 0.832-0.167 0.091-0.56-1.029 1.476-0.81z"></path>
<path fill="#fffcf6" opacity="0.64" d="M30.203 13.953l0.076 0.212-1.408 0.499 0.295 0.84-0.182 0.061-0.371-1.052 1.589-0.56z"></path>
</svg>
</svg>
